<svg width="500" height="491" viewBox="0 0 650 639" fill="none" xmlns="http://www.w3.org/2000/svg">
<path fill-rule="evenodd" clip-rule="evenodd" d="M401.011 607.71L111.636 440.455C107.242 437.915 103.028 433.736 99.9215 428.836C96.8146 423.937 95.0692 418.718 95.0692 414.328C95.0692 409.939 96.8146 406.738 99.9215 405.429L132.271 386.177L42.0543 334.033C37.6605 331.493 33.4465 327.314 30.3396 322.414C27.2327 317.514 25.4872 312.295 25.4872 307.906C25.4872 303.516 27.2327 300.315 30.3396 299.007L123.118 245.167L68.5617 213.633C64.1678 211.094 59.954 206.914 56.847 202.015C53.7401 197.115 51.9946 191.896 51.9946 187.507C51.9946 183.117 53.7401 179.916 56.847 178.608L91.9398 157.766C91.2487 156.864 90.5935 155.926 89.9813 154.961C88.9673 153.362 88.0983 151.729 87.3877 150.101C85.9209 146.743 85.1289 143.41 85.1289 140.453C85.1289 136.063 86.8744 132.862 89.9813 131.554L265.324 29.3161C275.203 23.5559 288.616 24.8394 302.618 32.8848L590.929 198.549C609.451 209.191 624.495 235.226 624.495 256.638V472.453C624.495 488.691 618.903 501.028 608.953 506.739L429.266 609.874C428.264 610.63 427.164 611.263 425.971 611.766C419.349 614.554 410.375 613.096 401.011 607.71ZM435.835 635.194C438.331 634.143 440.718 632.85 442.966 631.321L621.607 528.786C642.531 516.776 649.916 493.582 649.916 472.453V256.638C649.916 240.417 644.387 224.195 636.668 210.837C628.951 197.482 617.658 184.589 603.594 176.508L315.283 10.844C297.016 0.347774 273.308 -4.76472 252.52 7.35605L78.1648 109.018C64.1348 115.96 59.7085 130.066 59.7085 140.453C59.7085 142.684 59.8849 144.886 60.2091 147.046L44.9102 156.132C30.9752 163.094 26.5743 177.149 26.5743 187.507C26.5743 198.037 30.5029 207.938 35.379 215.628C40.3649 223.491 47.4176 230.773 55.841 235.642L72.3961 245.211L18.5542 276.455C4.4994 283.392 0.0668945 297.511 0.0668945 307.906C0.0668945 318.436 3.99536 328.337 8.87154 336.027C13.8576 343.89 20.9104 351.172 29.3336 356.041L82.2313 386.615C72.8039 394.137 69.6488 405.559 69.6488 414.328C69.6488 424.859 73.5773 434.759 78.4535 442.449C83.4398 450.313 90.4927 457.595 98.9156 462.463L388.314 629.733L388.339 629.747C401.006 637.031 418.784 642.373 435.835 635.194ZM30.3396 322.414L8.87154 336.027L30.3396 322.414Z" fill="white"/>
<mask id="mask0_206_16918" style="mask-type:alpha" maskUnits="userSpaceOnUse" x="25" y="130" width="412" height="483">
<path fill-rule="evenodd" clip-rule="evenodd" d="M401.011 306.342L101.696 133.425C97.3022 130.886 93.0883 130.195 89.9814 131.502C86.8745 132.81 85.129 136.009 85.129 140.397C85.129 144.784 86.8745 150.001 89.9814 154.898C90.5936 155.863 91.2488 156.8 91.9399 157.702C92.1593 157.989 92.3824 158.271 92.6088 158.551C95.2884 161.854 98.4429 164.632 101.696 166.511L234.233 243.079C238.627 245.617 242.841 249.795 245.948 254.692C249.055 259.59 250.8 264.806 250.8 269.193C250.8 273.581 249.055 276.78 245.948 278.088C242.841 279.395 238.627 278.704 234.233 276.166L68.5618 180.456C64.1679 177.917 59.9541 177.226 56.8471 178.533C53.7402 179.841 51.9947 183.04 51.9947 187.428C51.9947 191.815 53.7402 197.032 56.8471 201.929C59.9541 206.826 64.1679 211.004 68.5618 213.542L123.119 245.06L161.338 267.14C165.732 269.678 169.946 273.855 173.053 278.753C176.16 283.65 177.905 288.866 177.905 293.254C177.905 297.641 176.16 300.841 173.053 302.148C169.946 303.456 165.732 302.765 161.338 300.226L113.293 272.47C108.46 269.678 103.825 268.917 100.407 270.356C96.9893 271.794 95.0693 275.313 95.0693 280.14C95.0693 284.966 96.9893 290.704 100.407 296.091C103.825 301.478 108.46 306.073 113.293 308.865L177.905 346.192C182.299 348.73 186.513 352.908 189.62 357.805C192.727 362.703 194.472 367.919 194.472 372.306C194.472 376.694 192.727 379.893 189.62 381.201C186.513 382.508 182.299 381.817 177.905 379.279L42.0544 300.796C37.6606 298.258 33.4466 297.567 30.3397 298.874C27.2328 300.182 25.4873 303.381 25.4873 307.769C25.4873 312.156 27.2328 317.372 30.3397 322.27C33.4466 327.167 37.6606 331.345 42.0544 333.883L132.271 386.002L217.666 435.335C222.06 437.874 226.274 442.051 229.381 446.949C232.488 451.846 234.233 457.062 234.233 461.45C234.233 465.837 232.488 469.037 229.381 470.344C226.274 471.652 222.06 470.96 217.666 468.422L111.636 407.168C107.243 404.629 103.029 403.938 99.9216 405.245C96.8147 406.553 95.0693 409.752 95.0693 414.14C95.0693 418.527 96.8147 423.744 99.9216 428.641C103.029 433.538 107.243 437.715 111.636 440.254L401.011 607.428C410.376 612.811 419.349 614.268 425.971 611.482C427.164 610.979 428.264 610.346 429.266 609.591C433.818 606.159 436.33 600.208 436.352 592.555V362.049C436.325 352.682 432.592 341.565 425.971 331.128C419.349 320.69 410.376 311.779 401.011 306.342ZM308.224 452.032L332.709 466.177L368.31 381.743L343.825 367.598L321.291 434.681L298.309 341.303L275.025 327.851L252.342 394.848L229.509 301.557L203.972 286.804L239.423 412.285L263.76 426.345L286.141 363.525L308.224 452.032Z" fill="white"/>
<path d="M332.709 466.177L308.224 452.032L286.141 363.525L263.76 426.345L239.423 412.285L203.972 286.804L229.509 301.557L252.342 394.848L275.025 327.851L298.309 341.303L321.291 434.681L343.825 367.598L368.31 381.743L332.709 466.177Z" fill="white"/>
</mask>
<g mask="url(#mask0_206_16918)">
<rect x="25.4873" y="130.855" width="410.865" height="483.096" fill="#73E72B"/>
</g>
<g clip-path="url(#clip0_206_16918)">
<mask id="mask1_206_16918" style="mask-type:alpha" maskUnits="userSpaceOnUse" x="30" y="25" width="595" height="585">
<path d="M101.696 133.425L401.011 306.342C410.375 311.78 419.349 320.691 425.971 331.128C432.592 341.566 436.325 352.682 436.352 362.049V592.556C436.33 600.208 433.818 606.16 429.266 609.592L608.953 506.507C618.903 500.798 624.496 488.467 624.496 472.237V256.526C624.496 235.125 609.451 209.103 590.929 198.465L302.618 32.8814C288.617 24.8399 275.204 23.557 265.325 29.3143L89.9813 131.503C93.0882 130.195 97.3021 130.887 101.696 133.425Z" fill="#AAAAAA"/>
<path d="M234.233 243.08L101.696 166.512C98.4428 164.632 95.2883 161.854 92.6087 158.551C92.3822 158.272 92.1592 157.989 91.9398 157.703L56.847 178.534C59.954 177.226 64.1678 177.918 68.5617 180.456L234.233 276.166C238.627 278.705 242.841 279.396 245.948 278.088C249.055 276.781 250.8 273.581 250.8 269.194C250.8 264.806 249.055 259.59 245.948 254.693C242.841 249.795 238.627 245.618 234.233 243.08Z" fill="#AAAAAA"/>
<path d="M173.052 278.753C169.946 273.856 165.732 269.679 161.338 267.14L123.118 245.061L30.3396 298.875C33.4465 297.567 37.6605 298.259 42.0543 300.797L177.905 379.279C182.299 381.818 186.513 382.509 189.619 381.202C192.726 379.894 194.472 376.694 194.472 372.307C194.472 367.919 192.726 362.703 189.619 357.806C186.513 352.909 182.299 348.731 177.905 346.193L113.293 308.866C108.46 306.074 103.824 301.479 100.407 296.091C96.9891 290.704 95.0692 284.967 95.0692 280.14C95.0692 275.314 96.9891 271.795 100.407 270.356C103.824 268.918 108.46 269.679 113.293 272.471L161.338 300.227C165.732 302.765 169.946 303.457 173.052 302.149C176.159 300.842 177.905 297.642 177.905 293.255C177.905 288.867 176.159 283.651 173.052 278.753Z" fill="#AAAAAA"/>
<path d="M229.381 446.949C226.274 442.052 222.06 437.874 217.666 435.336L132.271 386.003L99.9215 405.246C103.028 403.938 107.242 404.63 111.636 407.168L217.666 468.423C222.06 470.961 226.274 471.652 229.381 470.345C232.488 469.037 234.233 465.838 234.233 461.45C234.233 457.063 232.488 451.847 229.381 446.949Z" fill="#AAAAAA"/>
</mask>
<g mask="url(#mask1_206_16918)">
<path d="M30.3396 25.7637H624.496V609.592H30.3396V25.7637Z" fill="url(#paint0_linear_206_16918)"/>
<g clip-path="url(#clip1_206_16918)">
<path opacity="0.331057" d="M269.691 34.2741C275.722 30.792 285.501 30.792 291.532 34.2741L300.112 39.2279L280.612 50.4865L261.111 39.2279L269.691 34.2741Z" fill="#76F32B"/>
<rect opacity="0.171969" width="22.5173" height="22.5173" transform="matrix(0.866025 0.5 -0.866025 0.5 306.352 42.8306)" fill="#76F32B"/>
<rect opacity="0.300093" width="22.5173" height="22.5173" transform="matrix(0.866025 0.5 -0.866025 0.5 332.093 57.6921)" fill="#76F32B"/>
<rect opacity="0.33839" width="22.5173" height="22.5173" transform="matrix(0.866025 0.5 -0.866025 0.5 357.834 72.5535)" fill="#76F32B"/>
<rect opacity="0.725128" width="22.5173" height="22.5173" transform="matrix(0.866025 0.5 -0.866025 0.5 383.574 87.4148)" fill="#76F32B"/>
<rect opacity="0.627761" width="22.5173" height="22.5173" transform="matrix(0.866025 0.5 -0.866025 0.5 409.315 102.276)" fill="#76F32B"/>
<rect opacity="0.774668" width="22.5173" height="22.5173" transform="matrix(0.866025 0.5 -0.866025 0.5 435.056 117.138)" fill="#76F32B"/>
</g>
<g clip-path="url(#clip2_206_16918)">
<rect opacity="0.273153" width="22.5173" height="22.5173" transform="matrix(0.866025 0.5 -0.866025 0.5 254.871 42.8306)" fill="#76F32B"/>
<rect opacity="0.445178" width="22.5173" height="22.5173" transform="matrix(0.866025 0.5 -0.866025 0.5 280.612 57.6921)" fill="#76F32B"/>
<rect opacity="0.259738" width="22.5173" height="22.5173" transform="matrix(0.866025 0.5 -0.866025 0.5 306.352 72.5535)" fill="#76F32B"/>
<rect opacity="0.563628" width="22.5173" height="22.5173" transform="matrix(0.866025 0.5 -0.866025 0.5 332.093 87.4148)" fill="#76F32B"/>
<rect opacity="0.675148" width="22.5173" height="22.5173" transform="matrix(0.866025 0.5 -0.866025 0.5 357.834 102.276)" fill="#76F32B"/>
</g>
<g clip-path="url(#clip3_206_16918)">
<rect opacity="0.348397" width="22.5173" height="22.5173" transform="matrix(0.866025 0.5 -0.866025 0.5 229.13 57.6921)" fill="#76F32B"/>
<rect opacity="0.257532" width="22.5173" height="22.5173" transform="matrix(0.866025 0.5 -0.866025 0.5 254.871 72.5537)" fill="#76F32B"/>
<rect opacity="0.236294" width="22.5173" height="22.5173" transform="matrix(0.866025 0.5 -0.866025 0.5 280.612 87.415)" fill="#76F32B"/>
</g>
<g clip-path="url(#clip4_206_16918)">
<rect opacity="0.149771" width="22.5173" height="22.5173" transform="matrix(0.866025 0.5 -0.866025 0.5 203.389 72.5535)" fill="#76F32B"/>
<rect opacity="0.355981" width="22.5173" height="22.5173" transform="matrix(0.866025 0.5 -0.866025 0.5 229.13 87.4148)" fill="#76F32B"/>
<rect opacity="0.436508" width="22.5173" height="22.5173" transform="matrix(0.866025 0.5 -0.866025 0.5 254.871 102.276)" fill="#76F32B"/>
<rect opacity="0.362867" width="22.5173" height="22.5173" transform="matrix(0.866025 0.5 -0.866025 0.5 280.612 117.138)" fill="#76F32B"/>
<rect opacity="0.646315" width="22.5173" height="22.5173" transform="matrix(0.866025 0.5 -0.866025 0.5 306.352 131.999)" fill="#76F32B"/>
<rect opacity="0.554741" width="22.5173" height="22.5173" transform="matrix(0.866025 0.5 -0.866025 0.5 332.093 146.86)" fill="#76F32B"/>
<rect opacity="0.875198" width="22.5173" height="22.5173" transform="matrix(0.866025 0.5 -0.866025 0.5 357.834 161.722)" fill="#76F32B"/>
<rect opacity="0.977114" width="22.5173" height="22.5173" transform="matrix(0.866025 0.5 -0.866025 0.5 383.574 176.583)" fill="#76F32B"/>
<rect width="22.5173" height="22.5173" transform="matrix(0.866025 0.5 -0.866025 0.5 409.315 191.445)" fill="#76F32B"/>
</g>
<g clip-path="url(#clip5_206_16918)">
<rect opacity="0.26796" width="22.5173" height="22.5173" transform="matrix(0.866025 0.5 -0.866025 0.5 177.649 87.4148)" fill="#76F32B"/>
<rect opacity="0.348982" width="22.5173" height="22.5173" transform="matrix(0.866025 0.5 -0.866025 0.5 203.389 102.276)" fill="#76F32B"/>
<rect opacity="0.572648" width="22.5173" height="22.5173" transform="matrix(0.866025 0.5 -0.866025 0.5 229.13 117.138)" fill="#76F32B"/>
<rect opacity="0.348477" width="22.5173" height="22.5173" transform="matrix(0.866025 0.5 -0.866025 0.5 254.871 131.999)" fill="#76F32B"/>
<rect opacity="0.421158" width="22.5173" height="22.5173" transform="matrix(0.866025 0.5 -0.866025 0.5 280.612 146.86)" fill="#76F32B"/>
<rect opacity="0.6153" width="22.5173" height="22.5173" transform="matrix(0.866025 0.5 -0.866025 0.5 306.352 161.722)" fill="#76F32B"/>
<rect opacity="0.619619" width="22.5173" height="22.5173" transform="matrix(0.866025 0.5 -0.866025 0.5 332.093 176.583)" fill="#76F32B"/>
</g>
<g clip-path="url(#clip6_206_16918)">
<rect opacity="0.344385" width="22.5173" height="22.5173" transform="matrix(0.866025 0.5 -0.866025 0.5 151.908 102.276)" fill="#76F32B"/>
<rect opacity="0.289095" width="22.5173" height="22.5173" transform="matrix(0.866025 0.5 -0.866025 0.5 177.649 117.138)" fill="#76F32B"/>
<rect opacity="0.351245" width="22.5173" height="22.5173" transform="matrix(0.866025 0.5 -0.866025 0.5 203.389 131.999)" fill="#76F32B"/>
<rect opacity="0.656619" width="22.5173" height="22.5173" transform="matrix(0.866025 0.5 -0.866025 0.5 229.13 146.86)" fill="#76F32B"/>
<rect opacity="0.561904" width="22.5173" height="22.5173" transform="matrix(0.866025 0.5 -0.866025 0.5 254.871 161.722)" fill="#76F32B"/>
<rect opacity="0.809272" width="22.5173" height="22.5173" transform="matrix(0.866025 0.5 -0.866025 0.5 280.612 176.583)" fill="#76F32B"/>
<rect opacity="0.733729" width="22.5173" height="22.5173" transform="matrix(0.866025 0.5 -0.866025 0.5 306.352 191.445)" fill="#76F32B"/>
<rect opacity="0.877717" width="22.5173" height="22.5173" transform="matrix(0.866025 0.5 -0.866025 0.5 332.093 206.306)" fill="#76F32B"/>
</g>
<g clip-path="url(#clip7_206_16918)">
<rect opacity="0.379081" width="22.5173" height="22.5173" transform="matrix(0.866025 0.5 -0.866025 0.5 126.167 117.138)" fill="#76F32B"/>
<rect opacity="0.384309" width="22.5173" height="22.5173" transform="matrix(0.866025 0.5 -0.866025 0.5 151.908 131.999)" fill="#76F32B"/>
<rect opacity="0.555471" width="22.5173" height="22.5173" transform="matrix(0.866025 0.5 -0.866025 0.5 177.649 146.86)" fill="#76F32B"/>
<rect opacity="0.517441" width="22.5173" height="22.5173" transform="matrix(0.866025 0.5 -0.866025 0.5 203.389 161.722)" fill="#76F32B"/>
<rect opacity="0.681486" width="22.5173" height="22.5173" transform="matrix(0.866025 0.5 -0.866025 0.5 229.13 176.583)" fill="#76F32B"/>
</g>
<path d="M473.396 438.997L499.655 395.803C502.297 391.455 504.081 387.984 505.006 385.391C505.997 382.759 506.492 380.452 506.492 378.469C506.492 375.951 505.634 374.464 503.916 374.006C502.264 373.51 499.919 374.14 496.881 375.894C493.974 377.572 491.364 379.765 489.052 382.473C486.806 385.067 484.957 388.042 483.503 391.398L469.432 390.254C472.009 383.579 475.741 377.382 480.63 371.661C485.584 365.825 491.53 360.905 498.466 356.9C503.949 353.735 508.738 351.961 512.834 351.58C516.996 351.16 520.2 352.171 522.446 354.612C524.758 356.938 525.914 360.543 525.914 365.425C525.914 369.62 525.022 374.14 523.239 378.983C521.521 383.789 518.284 390.12 513.528 397.977L492.818 432.017L489.944 425.781L527.995 403.813V421.548L473.396 453.071V438.997ZM564.975 401.799C558.964 405.27 553.613 406.719 548.923 406.147C544.232 405.499 540.566 402.81 537.923 398.08C535.347 393.313 534.059 386.619 534.059 378C534.059 369.38 535.347 361.199 537.923 353.457C540.566 345.676 544.232 338.792 548.923 332.804C553.613 326.739 558.964 321.972 564.975 318.501C570.987 315.03 576.338 313.619 581.028 314.268C585.718 314.84 589.352 317.51 591.928 322.277C594.57 327.006 595.892 333.681 595.892 342.301C595.892 350.92 594.57 359.12 591.928 366.901C589.352 374.643 585.718 381.547 581.028 387.611C576.338 393.599 570.987 398.328 564.975 401.799ZM564.975 383.492C567.287 382.157 569.269 380.212 570.921 377.656C572.638 375.063 573.993 371.764 574.983 367.759C575.974 363.678 576.47 358.93 576.47 353.514C576.47 348.098 575.974 343.96 574.983 341.099C573.993 338.162 572.638 336.389 570.921 335.779C569.269 335.13 567.287 335.474 564.975 336.808C562.663 338.143 560.648 340.108 558.931 342.701C557.279 345.256 555.958 348.575 554.967 352.656C553.976 356.66 553.481 361.371 553.481 366.787C553.481 372.202 553.976 376.379 554.967 379.316C555.958 382.176 557.279 383.93 558.931 384.579C560.648 385.189 562.663 384.827 564.975 383.492ZM473.396 533.997L499.655 490.803C502.297 486.455 504.081 482.984 505.006 480.391C505.997 477.759 506.492 475.452 506.492 473.469C506.492 470.951 505.634 469.464 503.916 469.006C502.264 468.51 499.919 469.14 496.881 470.894C493.974 472.572 491.364 474.765 489.052 477.473C486.806 480.067 484.957 483.042 483.503 486.398L469.432 485.254C472.009 478.579 475.741 472.382 480.63 466.661C485.584 460.825 491.53 455.905 498.466 451.9C503.949 448.735 508.738 446.961 512.834 446.58C516.996 446.16 520.2 447.171 522.446 449.612C524.758 451.938 525.914 455.543 525.914 460.425C525.914 464.62 525.022 469.14 523.239 473.983C521.521 478.789 518.284 485.12 513.528 492.977L492.818 527.017L489.944 520.781L527.995 498.813V516.548L473.396 548.071V533.997ZM562.696 498.115C557.345 501.204 552.093 503.512 546.941 505.037C541.788 506.563 537.494 507.097 534.059 506.639L541.094 485.872C544.067 486.215 547.403 485.929 551.103 485.014C554.868 483.984 558.534 482.439 562.102 480.38C565.801 478.244 568.675 475.86 570.723 473.229C572.836 470.482 573.893 467.736 573.893 464.99C573.893 462.244 572.77 460.833 570.524 460.757C568.344 460.566 564.579 462.015 559.228 465.105L539.212 476.661L542.977 427.804L588.46 401.544V418.936L549.517 441.42L559.525 425.801L557.147 458.754L547.139 454.692L562.399 445.882C573.233 439.627 581.094 437.377 585.982 439.131C590.871 440.809 593.315 445.577 593.315 453.434C593.315 458.239 592.192 463.35 589.946 468.766C587.766 474.144 584.364 479.426 579.74 484.613C575.182 489.686 569.5 494.186 562.696 498.115Z" fill="white"/>
</g>
</g>
<path d="M332.709 466.178L308.224 452.032L286.141 363.525L263.76 426.345L239.423 412.286L203.972 286.804L229.509 301.557L252.342 394.848L275.025 327.852L298.309 341.304L321.291 434.681L343.825 367.599L368.31 381.744L332.709 466.178Z" fill="white"/>
<defs>
<linearGradient id="paint0_linear_206_16918" x1="563.578" y1="476.894" x2="347.212" y2="99.3436" gradientUnits="userSpaceOnUse">
<stop stop-color="#15B228"/>
<stop offset="1" stop-color="#0E624A"/>
</linearGradient>
<clipPath id="clip0_206_16918">
<rect width="594.156" height="583.828" fill="white" transform="translate(30.3396 25.7637)"/>
</clipPath>
<clipPath id="clip1_206_16918">
<rect width="200.854" height="22.5173" fill="white" transform="matrix(0.866025 0.5 -0.866025 0.5 280.612 27.9692)"/>
</clipPath>
<clipPath id="clip2_206_16918">
<rect width="141.409" height="22.5173" fill="white" transform="matrix(0.866025 0.5 -0.866025 0.5 254.871 42.8306)"/>
</clipPath>
<clipPath id="clip3_206_16918">
<rect width="81.963" height="22.5173" fill="white" transform="matrix(0.866025 0.5 -0.866025 0.5 229.13 57.6921)"/>
</clipPath>
<clipPath id="clip4_206_16918">
<rect width="260.3" height="22.5173" fill="white" transform="matrix(0.866025 0.5 -0.866025 0.5 203.389 72.5535)"/>
</clipPath>
<clipPath id="clip5_206_16918">
<rect width="200.854" height="22.5173" fill="white" transform="matrix(0.866025 0.5 -0.866025 0.5 177.649 87.4148)"/>
</clipPath>
<clipPath id="clip6_206_16918">
<rect width="230.577" height="22.5173" fill="white" transform="matrix(0.866025 0.5 -0.866025 0.5 151.908 102.276)"/>
</clipPath>
<clipPath id="clip7_206_16918">
<rect width="141.409" height="22.5173" fill="white" transform="matrix(0.866025 0.5 -0.866025 0.5 126.167 117.138)"/>
</clipPath>
</defs>
</svg>
