<svg width="1000" height="1000" viewBox="0 0 1000 1000" fill="none" xmlns="http://www.w3.org/2000/svg">
<g clip-path="url(#clip0_123_7227)">
<path d="M132.41 225.896C132.41 219.164 135.087 214.255 139.852 212.248L408.772 55.4482C423.923 46.614 444.494 48.5825 465.968 60.9215L908.144 314.996C936.551 331.319 959.624 371.248 959.624 404.087V735.077C959.624 759.981 951.047 778.903 935.786 787.662L660.204 945.838C658.669 946.996 656.982 947.967 655.151 948.738C644.995 953.014 631.233 950.778 616.871 942.519L173.064 686.003C166.325 682.108 159.862 675.698 155.097 668.184C150.332 660.669 147.655 652.665 147.655 645.933C147.655 639.201 150.332 634.291 155.097 632.285L204.711 602.758L66.3474 522.785C59.6086 518.89 53.1458 512.48 48.3807 504.966C43.6157 497.451 40.9387 489.447 40.9387 482.715C40.9387 475.983 43.6157 471.073 48.3807 469.067L190.674 386.493L107.001 338.132C100.262 334.237 93.7996 327.827 89.0346 320.312C84.2696 312.798 81.5925 304.794 81.5925 298.061C81.5925 291.329 84.2696 286.42 89.0346 284.413L142.856 252.45C141.796 251.066 140.791 249.628 139.852 248.147C135.087 240.632 132.41 232.628 132.41 225.896Z" fill="#333333"/>
<g filter="url(#filter0_dd_123_7227)">
<path fill-rule="evenodd" clip-rule="evenodd" d="M616.871 942.518L173.063 686.002C166.325 682.107 159.862 675.698 155.097 668.183C150.332 660.669 147.655 652.665 147.655 645.932C147.655 639.2 150.332 634.291 155.097 632.284L204.711 602.758L66.3471 522.785C59.6083 518.89 53.1455 512.48 48.3805 504.965C43.6154 497.451 40.9385 489.447 40.9385 482.714C40.9385 475.982 43.6154 471.073 48.3805 469.066L190.673 386.493L107.001 338.131C100.262 334.236 93.7994 327.826 89.0344 320.312C84.2693 312.797 81.5922 304.793 81.5922 298.061C81.5922 291.329 84.2693 286.419 89.0344 284.413L142.855 252.449C141.795 251.065 140.791 249.627 139.852 248.147C138.296 245.694 136.964 243.189 135.874 240.694C133.624 235.543 132.41 230.431 132.41 225.896C132.41 219.163 135.087 214.254 139.852 212.248L408.772 55.4478C423.923 46.6135 444.494 48.5821 465.968 60.9211L908.144 314.996C936.551 331.319 959.624 371.248 959.624 404.086V735.077C959.624 759.981 951.047 778.902 935.786 787.661L660.204 945.837C658.669 946.996 656.982 947.967 655.151 948.738C644.995 953.014 631.233 950.778 616.871 942.518ZM670.28 984.669C674.107 983.058 677.769 981.075 681.216 978.729L955.194 821.474C987.284 803.055 998.611 767.482 998.611 735.077V404.086C998.611 379.208 990.131 354.329 978.293 333.842C966.458 313.36 949.137 293.586 927.568 281.192L485.391 27.1175C457.376 11.0197 421.016 3.17882 389.134 21.7682L121.729 177.685C100.211 188.332 93.423 209.965 93.423 225.896C93.423 229.317 93.6934 232.695 94.1907 236.007L70.7271 249.942C49.3553 260.621 42.6057 282.176 42.6057 298.061C42.6057 314.212 48.6309 329.396 56.1092 341.19C63.7561 353.249 74.5726 364.418 87.4915 371.885L112.882 386.561L30.3055 434.48C8.74994 445.119 1.9519 466.773 1.9519 482.714C1.9519 498.865 7.9769 514.049 15.4554 525.843C23.1024 537.903 33.9191 549.072 46.8377 556.539L127.966 603.43C113.507 614.966 108.668 632.483 108.668 645.932C108.668 662.083 114.693 677.267 122.172 689.061C129.819 701.121 140.636 712.29 153.554 719.756L597.398 976.294L597.435 976.315C616.863 987.487 644.129 995.68 670.28 984.669ZM48.3805 504.965L15.4554 525.843L48.3805 504.965Z" fill="#222222"/>
<path d="M388.883 21.3359C420.981 2.62072 457.544 10.5395 485.64 26.6836L927.817 280.759C949.481 293.207 966.859 313.055 978.726 333.592C990.597 354.134 999.111 379.099 999.111 404.086V735.076C999.111 767.574 987.751 803.363 955.443 821.907L681.476 979.156C678.007 981.514 674.323 983.509 670.473 985.13C644.116 996.227 616.676 987.957 597.186 976.749L597.149 976.728L597.148 976.727L153.303 720.189C140.306 712.677 129.434 701.447 121.75 689.329C114.237 677.481 108.168 662.204 108.168 645.933C108.168 632.56 112.914 615.16 127.087 603.499L46.5876 556.972C33.5898 549.459 22.7168 538.229 15.033 526.111C7.51989 514.263 1.452 498.986 1.4519 482.715C1.4519 466.662 8.29615 444.791 30.071 434.037L111.884 386.561L87.241 372.318C74.2428 364.806 63.371 353.574 55.6873 341.457C48.1743 329.609 42.1052 314.332 42.1052 298.061C42.1053 282.066 48.9 260.3 70.4841 249.504L93.6482 235.747C93.1789 232.519 92.9226 229.228 92.9226 225.896C92.9227 209.854 99.7575 188.006 121.493 177.243L388.883 21.3359ZM465.719 61.3545C444.328 49.0639 423.96 47.1708 409.023 55.8799L140.103 212.68L140.076 212.696L140.046 212.709C135.526 214.612 132.91 219.29 132.91 225.896C132.91 230.346 134.103 235.389 136.332 240.493C137.411 242.964 138.732 245.447 140.274 247.879C141.205 249.347 142.202 250.773 143.253 252.146L143.594 252.592L143.111 252.879L89.2898 284.843L89.2605 284.86L89.2283 284.874C84.7087 286.777 82.0926 291.456 82.0925 298.061C82.0925 304.672 84.7265 312.584 89.4568 320.044C94.1848 327.5 100.591 333.849 107.251 337.698L190.924 386.061L191.671 386.492L190.925 386.926L48.6316 469.499L48.6042 469.515L48.575 469.527C44.0551 471.43 41.4382 476.11 41.4382 482.715C41.4383 489.326 44.0724 497.238 48.8025 504.697C53.5306 512.154 59.9379 518.502 66.5974 522.352L204.961 602.324L205.699 602.751L204.967 603.188L155.352 632.714L155.323 632.731L155.291 632.745C150.771 634.648 148.155 639.327 148.155 645.933C148.155 652.544 150.789 660.455 155.519 667.915C160.247 675.371 166.654 681.72 173.313 685.569L617.119 942.085H617.12C631.417 950.307 645.006 952.466 654.957 948.276C656.75 947.521 658.401 946.571 659.903 945.438L659.928 945.419L659.956 945.403L935.538 787.228C950.582 778.592 959.124 759.884 959.124 735.076V404.086C959.124 387.775 953.391 369.669 944.104 353.598C934.817 337.526 922.004 323.537 907.895 315.43L465.719 61.3545Z" stroke="black"/>
</g>
<g filter="url(#filter1_dd_123_7227)">
<mask id="mask0_123_7227" style="mask-type:alpha" maskUnits="userSpaceOnUse" x="40" y="211" width="632" height="740">
<path fill-rule="evenodd" clip-rule="evenodd" d="M616.871 480.317L157.818 215.118C151.08 211.225 144.617 210.164 139.852 212.17C135.087 214.175 132.41 219.082 132.41 225.811C132.41 232.54 135.087 240.54 139.852 248.051C140.791 249.531 141.796 250.968 142.856 252.352C143.192 252.791 143.534 253.225 143.881 253.653C147.991 258.719 152.829 262.98 157.818 265.862L361.088 383.293C367.826 387.186 374.289 393.592 379.054 401.103C383.819 408.614 386.496 416.614 386.496 423.343C386.496 430.073 383.819 434.979 379.054 436.985C374.289 438.99 367.826 437.93 361.088 434.037L107.001 287.248C100.262 283.355 93.7997 282.295 89.0346 284.3C84.2696 286.306 81.5925 291.212 81.5925 297.942C81.5925 304.671 84.2696 312.671 89.0346 320.182C93.7997 327.693 100.262 334.099 107.001 337.992L190.674 386.331L249.29 420.194C256.028 424.087 262.491 430.494 267.256 438.005C272.021 445.516 274.698 453.516 274.698 460.245C274.698 466.974 272.021 471.881 267.256 473.886C262.491 475.891 256.028 474.831 249.29 470.938L175.604 428.369C168.192 424.087 161.083 422.92 155.841 425.126C150.6 427.332 147.655 432.73 147.655 440.132C147.655 447.534 150.6 456.333 155.841 464.596C161.083 472.858 168.192 479.905 175.604 484.187L274.698 541.435C281.437 545.328 287.9 551.735 292.665 559.246C297.43 566.757 300.107 574.757 300.107 581.486C300.107 588.215 297.43 593.122 292.665 595.127C287.9 597.132 281.437 596.072 274.698 592.179L66.3474 471.812C59.6086 467.919 53.1458 466.859 48.3807 468.864C43.6157 470.87 40.9387 475.777 40.9387 482.506C40.9387 489.235 43.6157 497.235 48.3807 504.746C53.1458 512.257 59.6086 518.663 66.3474 522.556L204.711 602.491L335.679 678.152C342.418 682.045 348.88 688.452 353.645 695.963C358.41 703.474 361.088 711.474 361.088 718.203C361.088 724.932 358.41 729.839 353.645 731.844C348.88 733.849 342.418 732.789 335.679 728.896L173.064 634.951C166.325 631.058 159.862 629.998 155.097 632.003C150.332 634.009 147.655 638.916 147.655 645.645C147.655 652.374 150.332 660.374 155.097 667.885C159.862 675.396 166.325 681.802 173.064 685.695L616.871 942.087C631.233 950.342 644.995 952.577 655.151 948.303C656.982 947.533 658.669 946.562 660.205 945.404C667.186 940.14 671.038 931.013 671.073 919.277V565.754C671.031 551.388 665.307 534.339 655.151 518.331C644.995 502.323 631.233 488.656 616.871 480.317Z" fill="#CE5305"/>
</mask>
<g mask="url(#mask0_123_7227)">
<rect x="986.938" y="1134" width="1014" height="1030" transform="rotate(180 986.938 1134)" fill="#4A1919"/>
<rect x="986.938" y="1134" width="1014" height="1030" transform="rotate(180 986.938 1134)" fill="url(#paint0_radial_123_7227)"/>
</g>
<g clip-path="url(#clip1_123_7227)">
<mask id="mask1_123_7227" style="mask-type:alpha" maskUnits="userSpaceOnUse" x="48" y="50" width="912" height="896">
<path d="M157.819 215.118L616.871 480.317C631.234 488.657 644.996 502.323 655.152 518.331C665.307 534.339 671.031 551.388 671.073 565.754V919.277C671.039 931.013 667.186 940.141 660.205 945.404L935.787 787.305C951.047 778.55 959.625 759.638 959.625 734.746V403.915C959.625 371.093 936.552 331.183 908.145 314.868L465.969 60.9162C444.495 48.5832 423.923 46.6156 408.772 55.4456L139.852 212.17C144.617 210.165 151.08 211.225 157.819 215.118Z" fill="#AAAAAA"/>
<path d="M361.088 383.293L157.819 265.862C152.829 262.98 147.991 258.719 143.882 253.653C143.535 253.225 143.192 252.791 142.856 252.352L89.035 284.3C93.8 282.295 100.263 283.355 107.002 287.248L361.088 434.037C367.827 437.93 374.29 438.99 379.055 436.985C383.82 434.98 386.497 430.073 386.497 423.344C386.497 416.615 383.82 408.614 379.055 401.103C374.29 393.592 367.827 387.186 361.088 383.293Z" fill="#AAAAAA"/>
<path d="M267.257 438.005C262.492 430.494 256.029 424.087 249.29 420.194L190.674 386.331L48.3811 468.864C53.1461 466.859 59.6089 467.919 66.3477 471.813L274.698 592.179C281.437 596.072 287.9 597.133 292.665 595.127C297.43 593.122 300.107 588.215 300.107 581.486C300.107 574.757 297.43 566.757 292.665 559.246C287.9 551.735 281.437 545.328 274.698 541.435L175.605 484.187C168.192 479.905 161.083 472.858 155.842 464.596C150.6 456.334 147.655 447.534 147.655 440.132C147.655 432.73 150.6 427.332 155.842 425.126C161.083 422.92 168.192 424.087 175.605 428.369L249.29 470.938C256.029 474.831 262.492 475.892 267.257 473.886C272.022 471.881 274.699 466.974 274.699 460.245C274.699 453.516 272.022 445.516 267.257 438.005Z" fill="#AAAAAA"/>
<path d="M353.646 695.963C348.881 688.452 342.418 682.045 335.679 678.152L204.712 602.491L155.097 632.003C159.862 629.998 166.325 631.059 173.064 634.952L335.679 728.896C342.418 732.789 348.881 733.85 353.646 731.844C358.411 729.839 361.088 724.932 361.088 718.203C361.088 711.474 358.411 703.474 353.646 695.963Z" fill="#AAAAAA"/>
</mask>
<g mask="url(#mask1_123_7227)">
<rect x="2.93872" y="-28" width="1014" height="1030" fill="url(#paint1_linear_123_7227)"/>
<rect x="2.93872" y="-28" width="1014" height="1030" fill="url(#paint2_linear_123_7227)" fill-opacity="0.2"/>
<rect width="597.788" height="336.256" transform="matrix(-0.866025 -0.5 0.866025 -0.5 649.832 515.483)" fill="white"/>
<g filter="url(#filter2_d_123_7227)">
<path d="M233.261 128.245C179.234 165.09 136.82 188.441 99.5958 207.925L669.648 537.045L990.88 351.581L368.748 -7.60716C358.38 2.47079 349.631 13.0838 337.031 27.5594C309.594 59.0824 287.287 91.3992 233.261 128.245Z" fill="url(#paint3_linear_123_7227)"/>
</g>
<g filter="url(#filter3_d_123_7227)">
<path d="M297.556 165.346C242.971 201.877 200.663 225.295 163.631 244.895L669.514 536.967L990.785 351.481L438.683 32.7253C427.914 42.5738 418.622 52.8748 405.318 66.9463C376.347 97.5895 352.141 128.815 297.556 165.346Z" fill="url(#paint4_linear_123_7227)"/>
</g>
<g filter="url(#filter4_d_123_7227)">
<path d="M428.733 107.725C381.145 136.873 371.194 149.635 342.223 180.278C313.252 210.921 289.046 242.147 234.462 278.678L671.494 530.999L988.358 348.058L508.836 71.2058C480.81 80.4266 450.977 94.0996 428.733 107.725Z" fill="url(#paint5_linear_123_7227)"/>
</g>
<g filter="url(#filter5_d_123_7227)">
<path d="M364.606 279.505C322.239 312.377 305.909 319.287 273.42 335.058L637.832 545.451L978.381 348.835L558.913 106.655C533.483 105.05 522.318 109.501 498.7 119.527C465.604 133.578 443.624 149.885 429.266 181.507C414.908 213.13 406.974 246.633 364.606 279.505Z" fill="url(#paint6_linear_123_7227)"/>
</g>
<g filter="url(#filter6_d_123_7227)">
<path d="M415.785 310.656C379.852 336.418 350.658 352.265 324.858 365.379L633.787 543.739L973.257 347.746L650.83 161.592C625.761 147.119 564.522 164.318 532.454 184.506C500.387 204.693 495.509 214.527 479.522 237.674C463.535 260.82 451.719 284.893 415.785 310.656Z" fill="url(#paint7_linear_123_7227)"/>
</g>
<g filter="url(#filter7_d_123_7227)">
<path d="M462.974 344.71C427.411 372.257 396.914 388.455 369.681 401.687L621.789 547.242L972.719 344.633L701.736 188.18C666.684 167.943 597.645 182.413 565.023 203.588C532.402 224.762 529.574 236.206 517.441 262.67C505.307 289.135 498.537 317.164 462.974 344.71Z" fill="url(#paint8_linear_123_7227)"/>
</g>
<g filter="url(#filter8_d_123_7227)">
<path d="M526.742 376.857C493.187 405.563 472.545 417.955 467.962 447.688L630.552 541.56L975.684 342.297L710.633 189.27C685.287 174.636 631.36 198.454 599.409 220.015C567.457 241.576 547.908 264.849 557.346 292.715C566.783 320.58 560.297 348.151 526.742 376.857Z" fill="url(#paint9_linear_123_7227)"/>
</g>
<g filter="url(#filter9_d_123_7227)">
<path d="M625.16 406.434C585.726 440.169 567.665 475.05 606.69 497.581L651.045 523.189L966.653 340.973L743.934 212.387C743.934 212.387 713.781 223.88 674.773 246.401C635.764 268.923 632.011 307.125 651.045 334.668C670.216 362.348 652.836 382.757 625.16 406.434Z" fill="url(#paint10_linear_123_7227)"/>
</g>
<g filter="url(#filter10_d_123_7227)">
<path d="M645.112 522.567C606.087 500.036 629.945 469.436 669.379 435.701C697.055 412.025 723.603 390.681 704.432 363.001C685.398 335.458 698.224 297.778 737.233 275.256C776.241 252.735 810.129 247.336 810.129 247.336L962.338 337.86L970.938 399L983.938 786C871.938 845.666 647.938 967.4 647.938 977L647.938 580L645.112 522.567Z" fill="url(#paint11_linear_123_7227)"/>
</g>
<path d="M742.36 700.698V680.114L780.168 617.615C782.948 613.133 785.056 609.37 786.494 606.327C787.932 603.173 788.89 600.517 789.369 598.359C789.848 596.201 790.088 594.292 790.088 592.632C790.088 590.308 789.513 588.648 788.363 587.652C787.309 586.49 785.775 586.047 783.762 586.324C781.75 586.49 779.306 587.403 776.431 589.063C772.31 591.442 768.572 594.596 765.217 598.525C761.959 602.288 759.323 606.576 757.311 611.39L736.465 609.813C740.107 600.517 745.426 591.636 752.423 583.17C759.515 574.538 768.284 567.206 778.731 561.175C786.686 556.582 793.634 554.009 799.576 553.456C805.614 552.847 810.31 554.231 813.665 557.606C817.019 560.981 818.696 566.266 818.696 573.459C818.696 577.222 818.217 581.206 817.259 585.411C816.3 589.616 814.527 594.569 811.939 600.268C809.352 605.857 805.614 612.663 800.726 620.686L770.968 669.739L766.655 660.609L821.571 628.903V654.965L742.36 700.698ZM875.222 626.314C866.405 631.404 858.642 633.507 851.933 632.622C845.224 631.736 839.905 627.891 835.976 621.085C832.142 614.223 830.225 604.485 830.225 591.869C830.225 579.142 832.142 567.19 835.976 556.013C839.905 544.669 845.224 534.682 851.933 526.05C858.642 517.418 866.405 510.556 875.222 505.466C884.039 500.375 891.802 498.272 898.511 499.158C905.22 500.043 910.491 503.916 914.325 510.778C918.254 517.473 920.219 527.184 920.219 539.911C920.219 552.527 918.254 564.506 914.325 575.85C910.491 587.138 905.22 597.098 898.511 605.73C891.802 614.362 884.039 621.223 875.222 626.314ZM875.222 599.422C878.385 597.596 881.164 594.884 883.56 591.288C886.052 587.636 888.017 582.96 889.454 577.261C890.892 571.451 891.611 564.506 891.611 556.428C891.611 548.349 890.892 542.29 889.454 538.251C888.017 534.101 886.052 531.638 883.56 530.864C881.164 530.034 878.385 530.532 875.222 532.358C872.059 534.184 869.232 536.923 866.74 540.575C864.344 544.171 862.427 548.875 860.99 554.685C859.552 560.384 858.833 567.273 858.833 575.352C858.833 583.43 859.552 589.545 860.99 593.695C862.427 597.734 864.344 600.169 866.74 600.999C869.232 601.773 872.059 601.248 875.222 599.422ZM742.36 838.698V818.114L780.168 755.615C782.948 751.133 785.056 747.37 786.494 744.327C787.932 741.173 788.89 738.517 789.369 736.359C789.848 734.201 790.088 732.292 790.088 730.632C790.088 728.308 789.513 726.648 788.363 725.652C787.309 724.49 785.775 724.047 783.762 724.324C781.75 724.49 779.306 725.403 776.431 727.063C772.31 729.442 768.572 732.596 765.217 736.525C761.959 740.288 759.323 744.576 757.311 749.39L736.465 747.813C740.107 738.517 745.426 729.636 752.423 721.17C759.515 712.538 768.284 705.206 778.731 699.175C786.686 694.582 793.634 692.009 799.576 691.456C805.614 690.847 810.31 692.231 813.665 695.606C817.019 698.981 818.696 704.266 818.696 711.459C818.696 715.222 818.217 719.206 817.259 723.411C816.3 727.616 814.527 732.569 811.939 738.268C809.352 743.857 805.614 750.663 800.726 758.686L770.968 807.739L766.655 798.609L821.571 766.903V792.965L742.36 838.698ZM878.672 762.322C868.801 768.021 860.271 770.677 853.083 770.29C845.991 769.847 840.48 766.499 836.551 760.247C832.717 753.939 830.8 744.753 830.8 732.691C830.8 723.727 832.094 714.68 834.682 705.55C837.269 696.309 841.007 687.4 845.895 678.824C850.783 670.247 856.725 662.334 863.721 655.086C870.813 647.671 878.816 641.391 887.729 636.245C893.575 632.869 899.182 630.352 904.549 628.692C909.916 627.032 914.325 626.589 917.775 627.364L907.424 657.41C904.837 656.69 901.818 656.829 898.367 657.825C894.917 658.71 891.371 660.204 887.729 662.307C882.075 665.571 877.091 669.721 872.778 674.757C868.465 679.681 865.111 685.215 862.715 691.357C860.319 697.499 859.121 703.89 859.121 710.53C859.121 712.964 859.121 715.233 859.121 717.336C859.217 719.383 859.361 721.403 859.552 723.395L853.083 719.494C854.808 714.514 857.156 709.783 860.127 705.301C863.098 700.708 866.596 696.53 870.622 692.768C874.743 688.95 879.295 685.602 884.279 682.725C891.179 678.741 897.409 676.693 902.968 676.583C908.527 676.472 912.887 678.27 916.05 681.978C919.213 685.574 920.794 691.025 920.794 698.329C920.794 706.297 918.973 714.32 915.331 722.399C911.785 730.311 906.849 737.754 900.524 744.726C894.198 751.698 886.915 757.563 878.672 762.322ZM877.666 739.663C880.445 738.058 882.937 736.066 885.142 733.687C887.346 731.197 889.071 728.485 890.317 725.553C891.659 722.454 892.33 719.355 892.33 716.257C892.33 713.269 891.659 711.055 890.317 709.617C889.071 708.123 887.298 707.431 884.998 707.542C882.793 707.486 880.302 708.261 877.522 709.866C874.647 711.526 872.059 713.684 869.759 716.34C867.459 718.885 865.59 721.679 864.153 724.723C862.811 727.711 862.14 730.699 862.14 733.687C862.14 736.564 862.763 738.805 864.009 740.41C865.351 741.848 867.171 742.568 869.472 742.568C871.772 742.457 874.503 741.489 877.666 739.663Z" fill="#222222"/>
</g>
</g>
<path d="M512.118 725.453L474.565 703.758L440.698 568.017L406.371 664.362L369.047 642.8L314.677 450.352L353.842 472.978L388.86 616.057L423.648 513.305L459.359 533.936L494.607 677.147L529.166 574.264L566.718 595.958L512.118 725.453Z" fill="#222222"/>
</g>
</g>
<defs>
<filter id="filter0_dd_123_7227" x="-3.0481" y="9.97852" width="1006.66" height="988.901" filterUnits="userSpaceOnUse" color-interpolation-filters="sRGB">
<feFlood flood-opacity="0" result="BackgroundImageFix"/>
<feColorMatrix in="SourceAlpha" type="matrix" values="0 0 0 0 0 0 0 0 0 0 0 0 0 0 0 0 0 0 127 0" result="hardAlpha"/>
<feOffset dy="4"/>
<feGaussianBlur stdDeviation="2"/>
<feComposite in2="hardAlpha" operator="out"/>
<feColorMatrix type="matrix" values="0 0 0 0 0 0 0 0 0 0 0 0 0 0 0 0 0 0 0.25 0"/>
<feBlend mode="normal" in2="BackgroundImageFix" result="effect1_dropShadow_123_7227"/>
<feColorMatrix in="SourceAlpha" type="matrix" values="0 0 0 0 0 0 0 0 0 0 0 0 0 0 0 0 0 0 127 0" result="hardAlpha"/>
<feOffset dy="4"/>
<feGaussianBlur stdDeviation="2"/>
<feComposite in2="hardAlpha" operator="out"/>
<feColorMatrix type="matrix" values="0 0 0 0 0 0 0 0 0 0 0 0 0 0 0 0 0 0 0.25 0"/>
<feBlend mode="normal" in2="effect1_dropShadow_123_7227" result="effect2_dropShadow_123_7227"/>
<feBlend mode="normal" in="SourceGraphic" in2="effect2_dropShadow_123_7227" result="shape"/>
</filter>
<filter id="filter1_dd_123_7227" x="36.9387" y="50" width="928.245" height="910.091" filterUnits="userSpaceOnUse" color-interpolation-filters="sRGB">
<feFlood flood-opacity="0" result="BackgroundImageFix"/>
<feColorMatrix in="SourceAlpha" type="matrix" values="0 0 0 0 0 0 0 0 0 0 0 0 0 0 0 0 0 0 127 0" result="hardAlpha"/>
<feOffset dy="4"/>
<feGaussianBlur stdDeviation="2"/>
<feComposite in2="hardAlpha" operator="out"/>
<feColorMatrix type="matrix" values="0 0 0 0 0 0 0 0 0 0 0 0 0 0 0 0 0 0 0.25 0"/>
<feBlend mode="normal" in2="BackgroundImageFix" result="effect1_dropShadow_123_7227"/>
<feColorMatrix in="SourceAlpha" type="matrix" values="0 0 0 0 0 0 0 0 0 0 0 0 0 0 0 0 0 0 127 0" result="hardAlpha"/>
<feOffset dy="4"/>
<feGaussianBlur stdDeviation="2"/>
<feComposite in2="hardAlpha" operator="out"/>
<feColorMatrix type="matrix" values="0 0 0 0 0 0 0 0 0 0 0 0 0 0 0 0 0 0 0.25 0"/>
<feBlend mode="normal" in2="effect1_dropShadow_123_7227" result="effect2_dropShadow_123_7227"/>
<feBlend mode="normal" in="SourceGraphic" in2="effect2_dropShadow_123_7227" result="shape"/>
</filter>
<filter id="filter2_d_123_7227" x="84.5957" y="-22.6069" width="913.285" height="566.652" filterUnits="userSpaceOnUse" color-interpolation-filters="sRGB">
<feFlood flood-opacity="0" result="BackgroundImageFix"/>
<feColorMatrix in="SourceAlpha" type="matrix" values="0 0 0 0 0 0 0 0 0 0 0 0 0 0 0 0 0 0 127 0" result="hardAlpha"/>
<feOffset dx="-4" dy="-4"/>
<feGaussianBlur stdDeviation="5.5"/>
<feComposite in2="hardAlpha" operator="out"/>
<feColorMatrix type="matrix" values="0 0 0 0 0 0 0 0 0 0 0 0 0 0 0 0 0 0 0.1 0"/>
<feBlend mode="normal" in2="BackgroundImageFix" result="effect1_dropShadow_123_7227"/>
<feBlend mode="normal" in="SourceGraphic" in2="effect1_dropShadow_123_7227" result="shape"/>
</filter>
<filter id="filter3_d_123_7227" x="148.631" y="17.7251" width="849.154" height="526.242" filterUnits="userSpaceOnUse" color-interpolation-filters="sRGB">
<feFlood flood-opacity="0" result="BackgroundImageFix"/>
<feColorMatrix in="SourceAlpha" type="matrix" values="0 0 0 0 0 0 0 0 0 0 0 0 0 0 0 0 0 0 127 0" result="hardAlpha"/>
<feOffset dx="-4" dy="-4"/>
<feGaussianBlur stdDeviation="5.5"/>
<feComposite in2="hardAlpha" operator="out"/>
<feColorMatrix type="matrix" values="0 0 0 0 0 0 0 0 0 0 0 0 0 0 0 0 0 0 0.1 0"/>
<feBlend mode="normal" in2="BackgroundImageFix" result="effect1_dropShadow_123_7227"/>
<feBlend mode="normal" in="SourceGraphic" in2="effect1_dropShadow_123_7227" result="shape"/>
</filter>
<filter id="filter4_d_123_7227" x="219.462" y="56.2061" width="775.896" height="481.793" filterUnits="userSpaceOnUse" color-interpolation-filters="sRGB">
<feFlood flood-opacity="0" result="BackgroundImageFix"/>
<feColorMatrix in="SourceAlpha" type="matrix" values="0 0 0 0 0 0 0 0 0 0 0 0 0 0 0 0 0 0 127 0" result="hardAlpha"/>
<feOffset dx="-4" dy="-4"/>
<feGaussianBlur stdDeviation="5.5"/>
<feComposite in2="hardAlpha" operator="out"/>
<feColorMatrix type="matrix" values="0 0 0 0 0 0 0 0 0 0 0 0 0 0 0 0 0 0 0.1 0"/>
<feBlend mode="normal" in2="BackgroundImageFix" result="effect1_dropShadow_123_7227"/>
<feBlend mode="normal" in="SourceGraphic" in2="effect1_dropShadow_123_7227" result="shape"/>
</filter>
<filter id="filter5_d_123_7227" x="258.42" y="91.335" width="726.961" height="461.116" filterUnits="userSpaceOnUse" color-interpolation-filters="sRGB">
<feFlood flood-opacity="0" result="BackgroundImageFix"/>
<feColorMatrix in="SourceAlpha" type="matrix" values="0 0 0 0 0 0 0 0 0 0 0 0 0 0 0 0 0 0 127 0" result="hardAlpha"/>
<feOffset dx="-4" dy="-4"/>
<feGaussianBlur stdDeviation="5.5"/>
<feComposite in2="hardAlpha" operator="out"/>
<feColorMatrix type="matrix" values="0 0 0 0 0 0 0 0 0 0 0 0 0 0 0 0 0 0 0.1 0"/>
<feBlend mode="normal" in2="BackgroundImageFix" result="effect1_dropShadow_123_7227"/>
<feBlend mode="normal" in="SourceGraphic" in2="effect1_dropShadow_123_7227" result="shape"/>
</filter>
<filter id="filter6_d_123_7227" x="309.858" y="141.222" width="670.4" height="409.517" filterUnits="userSpaceOnUse" color-interpolation-filters="sRGB">
<feFlood flood-opacity="0" result="BackgroundImageFix"/>
<feColorMatrix in="SourceAlpha" type="matrix" values="0 0 0 0 0 0 0 0 0 0 0 0 0 0 0 0 0 0 127 0" result="hardAlpha"/>
<feOffset dx="-4" dy="-4"/>
<feGaussianBlur stdDeviation="5.5"/>
<feComposite in2="hardAlpha" operator="out"/>
<feColorMatrix type="matrix" values="0 0 0 0 0 0 0 0 0 0 0 0 0 0 0 0 0 0 0.1 0"/>
<feBlend mode="normal" in2="BackgroundImageFix" result="effect1_dropShadow_123_7227"/>
<feBlend mode="normal" in="SourceGraphic" in2="effect1_dropShadow_123_7227" result="shape"/>
</filter>
<filter id="filter7_d_123_7227" x="354.68" y="163.474" width="625.039" height="390.769" filterUnits="userSpaceOnUse" color-interpolation-filters="sRGB">
<feFlood flood-opacity="0" result="BackgroundImageFix"/>
<feColorMatrix in="SourceAlpha" type="matrix" values="0 0 0 0 0 0 0 0 0 0 0 0 0 0 0 0 0 0 127 0" result="hardAlpha"/>
<feOffset dx="-4" dy="-4"/>
<feGaussianBlur stdDeviation="5.5"/>
<feComposite in2="hardAlpha" operator="out"/>
<feColorMatrix type="matrix" values="0 0 0 0 0 0 0 0 0 0 0 0 0 0 0 0 0 0 0.1 0"/>
<feBlend mode="normal" in2="BackgroundImageFix" result="effect1_dropShadow_123_7227"/>
<feBlend mode="normal" in="SourceGraphic" in2="effect1_dropShadow_123_7227" result="shape"/>
</filter>
<filter id="filter8_d_123_7227" x="452.962" y="169.759" width="529.723" height="378.801" filterUnits="userSpaceOnUse" color-interpolation-filters="sRGB">
<feFlood flood-opacity="0" result="BackgroundImageFix"/>
<feColorMatrix in="SourceAlpha" type="matrix" values="0 0 0 0 0 0 0 0 0 0 0 0 0 0 0 0 0 0 127 0" result="hardAlpha"/>
<feOffset dx="-4" dy="-4"/>
<feGaussianBlur stdDeviation="5.5"/>
<feComposite in2="hardAlpha" operator="out"/>
<feColorMatrix type="matrix" values="0 0 0 0 0 0 0 0 0 0 0 0 0 0 0 0 0 0 0.1 0"/>
<feBlend mode="normal" in2="BackgroundImageFix" result="effect1_dropShadow_123_7227"/>
<feBlend mode="normal" in="SourceGraphic" in2="effect1_dropShadow_123_7227" result="shape"/>
</filter>
<filter id="filter9_d_123_7227" x="569.96" y="197.387" width="403.692" height="332.803" filterUnits="userSpaceOnUse" color-interpolation-filters="sRGB">
<feFlood flood-opacity="0" result="BackgroundImageFix"/>
<feColorMatrix in="SourceAlpha" type="matrix" values="0 0 0 0 0 0 0 0 0 0 0 0 0 0 0 0 0 0 127 0" result="hardAlpha"/>
<feOffset dx="-4" dy="-4"/>
<feGaussianBlur stdDeviation="5.5"/>
<feComposite in2="hardAlpha" operator="out"/>
<feColorMatrix type="matrix" values="0 0 0 0 0 0 0 0 0 0 0 0 0 0 0 0 0 0 0.1 0"/>
<feBlend mode="normal" in2="BackgroundImageFix" result="effect1_dropShadow_123_7227"/>
<feBlend mode="normal" in="SourceGraphic" in2="effect1_dropShadow_123_7227" result="shape"/>
</filter>
<filter id="filter10_d_123_7227" x="610.207" y="232.336" width="380.731" height="751.664" filterUnits="userSpaceOnUse" color-interpolation-filters="sRGB">
<feFlood flood-opacity="0" result="BackgroundImageFix"/>
<feColorMatrix in="SourceAlpha" type="matrix" values="0 0 0 0 0 0 0 0 0 0 0 0 0 0 0 0 0 0 127 0" result="hardAlpha"/>
<feOffset dx="-4" dy="-4"/>
<feGaussianBlur stdDeviation="5.5"/>
<feComposite in2="hardAlpha" operator="out"/>
<feColorMatrix type="matrix" values="0 0 0 0 0 0 0 0 0 0 0 0 0 0 0 0 0 0 0.1 0"/>
<feBlend mode="normal" in2="BackgroundImageFix" result="effect1_dropShadow_123_7227"/>
<feBlend mode="normal" in="SourceGraphic" in2="effect1_dropShadow_123_7227" result="shape"/>
</filter>
<radialGradient id="paint0_radial_123_7227" cx="0" cy="0" r="1" gradientUnits="userSpaceOnUse" gradientTransform="translate(1324.94 1356) rotate(40.3681) scale(612.942 612.942)">
<stop stop-color="#FF8010"/>
<stop offset="0.955554" stop-color="#FEE404"/>
</radialGradient>
<linearGradient id="paint1_linear_123_7227" x1="849.829" y1="664.668" x2="405.276" y2="68.4393" gradientUnits="userSpaceOnUse">
<stop offset="0.00480769" stop-color="#FEE404"/>
<stop offset="1" stop-color="#FF7411"/>
</linearGradient>
<linearGradient id="paint2_linear_123_7227" x1="355.939" y1="510" x2="270.939" y2="664" gradientUnits="userSpaceOnUse">
<stop stop-color="#FF7411" stop-opacity="0"/>
<stop offset="1" stop-color="#FF7411"/>
</linearGradient>
<linearGradient id="paint3_linear_123_7227" x1="166.509" y1="246.402" x2="463.128" y2="141.345" gradientUnits="userSpaceOnUse">
<stop stop-color="#FF9C11"/>
<stop offset="1" stop-color="#FDBF03"/>
</linearGradient>
<linearGradient id="paint4_linear_123_7227" x1="191.182" y1="273.878" x2="500.989" y2="120.08" gradientUnits="userSpaceOnUse">
<stop stop-color="#FDCB03"/>
<stop offset="1" stop-color="#FF9C11"/>
</linearGradient>
<linearGradient id="paint5_linear_123_7227" x1="303.35" y1="310.307" x2="520.184" y2="131.976" gradientUnits="userSpaceOnUse">
<stop stop-color="#FFB011"/>
<stop offset="1" stop-color="#FDD303"/>
</linearGradient>
<linearGradient id="paint6_linear_123_7227" x1="339.481" y1="339.261" x2="565.649" y2="132.344" gradientUnits="userSpaceOnUse">
<stop stop-color="#FFC411"/>
<stop offset="1" stop-color="#FFA811"/>
</linearGradient>
<linearGradient id="paint7_linear_123_7227" x1="463.512" y1="319.647" x2="546.081" y2="172.074" gradientUnits="userSpaceOnUse">
<stop stop-color="#FFA411"/>
<stop offset="1" stop-color="#FDE403"/>
</linearGradient>
<linearGradient id="paint8_linear_123_7227" x1="428.865" y1="397.717" x2="601.33" y2="141.704" gradientUnits="userSpaceOnUse">
<stop offset="1" stop-color="#FFBC11"/>
</linearGradient>
<linearGradient id="paint9_linear_123_7227" x1="499.104" y1="432.666" x2="637.512" y2="167.027" gradientUnits="userSpaceOnUse">
<stop stop-color="#FFBC11"/>
<stop offset="1" stop-color="#FDDC03"/>
</linearGradient>
<linearGradient id="paint10_linear_123_7227" x1="634.556" y1="513.67" x2="717.518" y2="247.06" gradientUnits="userSpaceOnUse">
<stop stop-color="#FDE403"/>
<stop offset="1" stop-color="#FFC711"/>
</linearGradient>
<linearGradient id="paint11_linear_123_7227" x1="662.369" y1="491.744" x2="705.94" y2="241.293" gradientUnits="userSpaceOnUse">
<stop stop-color="#FFCF11"/>
<stop offset="1" stop-color="#FDE403"/>
</linearGradient>
<clipPath id="clip0_123_7227">
<rect width="1000" height="982" fill="white" transform="translate(0 9)"/>
</clipPath>
<clipPath id="clip1_123_7227">
<rect width="911.244" height="895.404" fill="white" transform="translate(48.3811 50)"/>
</clipPath>
</defs>
</svg>
