<svg width="534" height="466" viewBox="0 0 534 466" fill="none" xmlns="http://www.w3.org/2000/svg">
<path d="M274.745 0.22268C279.104 0.235383 283.281 1.96653 286.363 5.03811C289.446 8.10993 291.184 12.273 291.196 16.6172L291.196 123.702C291.184 128.046 289.446 132.209 286.363 135.281C283.281 138.353 279.104 140.084 274.745 140.097L140.045 140.097C138 140.097 136.038 139.287 134.592 137.846C133.146 136.405 132.333 134.45 132.333 132.412C132.333 130.374 133.146 128.419 134.592 126.978C136.038 125.536 138 124.727 140.045 124.727L189.4 124.727C191.446 124.727 193.407 123.917 194.854 122.476C196.3 121.034 197.112 119.079 197.112 117.041C197.112 115.003 196.3 113.048 194.854 111.606C193.407 110.165 191.446 109.355 189.4 109.355L107.655 109.355C105.61 109.355 103.648 108.546 102.202 107.105C100.756 105.663 99.9434 103.708 99.9434 101.67C99.9434 99.6317 100.756 97.6766 102.202 96.2354C103.648 94.7942 105.61 93.9845 107.655 93.9844L170.893 93.9844C172.938 93.9843 174.9 93.1746 176.346 91.7334C177.792 90.2922 178.604 88.337 178.604 86.2989C178.603 84.2609 177.792 82.3064 176.346 80.8653C174.9 79.4241 172.938 78.6144 170.893 78.6143L140.816 78.6143C138.567 78.6143 136.409 77.723 134.818 76.1377C133.228 74.5524 132.333 72.4022 132.333 70.1602C132.333 67.9181 133.227 65.7671 134.818 64.1817C136.409 62.5965 138.567 61.7061 140.816 61.7061L163.181 61.7061C165.226 61.706 167.188 60.8964 168.634 59.4551C170.08 58.0138 170.893 56.0588 170.893 54.0205C170.893 51.9823 170.08 50.0272 168.634 48.586C167.188 47.1447 165.226 46.335 163.181 46.335L119.994 46.335C117.949 46.3349 115.987 45.5252 114.541 44.084C113.095 42.6427 112.282 40.6876 112.282 38.6494C112.282 36.6112 113.095 34.6561 114.541 33.2149C115.987 31.7737 117.949 30.964 119.994 30.9639L197.112 30.9639C199.158 30.9639 201.119 30.1542 202.565 28.7129C204.011 27.2717 204.824 25.3174 204.824 23.2793C204.824 21.2411 204.012 19.286 202.565 17.8447C201.119 16.4035 199.158 15.5938 197.112 15.5938L135.418 15.5938C133.373 15.5938 131.411 14.784 129.965 13.3428C128.519 11.9015 127.706 9.94648 127.706 7.90823C127.706 5.86995 128.519 3.91494 129.965 2.47366C131.411 1.03237 133.373 0.222692 135.418 0.22268L274.745 0.22268ZM194.152 55L199.313 97L212.093 97L225.48 71.6494L228.532 97L241.252 97L263.272 55L251.513 55L237.239 82.2002L234.232 55L223.252 55L209.084 81.8301L205.853 55L194.152 55Z" fill="#222222"/>
<path d="M183.408 163C187.767 163.013 191.944 164.745 195.026 167.816C198.109 170.888 199.846 175.051 199.858 179.395L199.858 286.48C199.846 290.825 198.109 294.987 195.026 298.059C191.944 301.13 187.767 302.862 183.408 302.875L44.0811 302.875C42.0358 302.875 40.0742 302.065 38.6279 300.624C37.1817 299.183 36.3692 297.228 36.3691 295.189C36.3691 293.151 37.1817 291.196 38.6279 289.755C40.0742 288.314 42.0358 287.504 44.0811 287.504L87.2666 287.504C89.3119 287.504 91.2735 286.694 92.7197 285.253C94.166 283.812 94.9785 281.857 94.9785 279.818C94.9785 277.78 94.1659 275.825 92.7197 274.384C91.2735 272.943 89.3118 272.133 87.2666 272.133L31.7422 272.133C29.6969 272.133 27.7353 271.323 26.2891 269.882C24.8429 268.441 24.0303 266.486 24.0303 264.447C24.0304 262.409 24.843 260.455 26.2891 259.014C27.7353 257.572 29.6969 256.763 31.7422 256.763L76.4707 256.763C78.5159 256.763 80.4777 255.953 81.9238 254.512C83.37 253.071 84.1826 251.115 84.1826 249.077C84.1826 247.039 83.3699 245.084 81.9238 243.643C80.4777 242.201 78.5159 241.392 76.4707 241.392L51.0215 241.392C48.7742 241.388 46.6199 240.495 45.0322 238.91C43.4447 237.325 42.5537 235.177 42.5537 232.938C42.5537 230.698 43.4447 228.55 45.0322 226.965C46.6199 225.38 48.7742 224.487 51.0215 224.483L93.4365 224.483C95.4817 224.483 97.4435 223.674 98.8896 222.232C100.336 220.791 101.148 218.836 101.148 216.798C101.148 214.76 100.336 212.805 98.8896 211.364C97.4435 209.923 95.4817 209.113 93.4365 209.113L8.60645 209.113C7.59273 209.115 6.58846 208.918 5.65137 208.532C4.71418 208.147 3.86209 207.581 3.14453 206.867C2.42706 206.153 1.85815 205.305 1.46973 204.372C1.08134 203.439 0.880901 202.438 0.880859 201.428C0.880859 200.417 1.08132 199.417 1.46973 198.483C1.85813 197.55 2.42702 196.702 3.14453 195.988C3.86212 195.274 4.71411 194.709 5.65137 194.323C6.58853 193.938 7.59264 193.74 8.60645 193.742L105.775 193.742C107.821 193.742 109.782 192.932 111.229 191.491C112.675 190.05 113.487 188.095 113.487 186.057C113.487 184.018 112.675 182.063 111.229 180.622C109.782 179.181 107.821 178.371 105.775 178.371L36.3691 178.371C34.3238 178.371 32.3623 177.561 30.916 176.12C29.4698 174.679 28.6572 172.724 28.6572 170.686C28.6573 168.647 29.4698 166.692 30.916 165.251C32.3622 163.81 34.3239 163 36.3691 163L183.408 163ZM136.333 213.08L109.393 255.08L121.933 255.08L126.78 246.92L144.669 246.92L146.353 255.08L158.173 255.08L148.032 213.08L136.333 213.08ZM142.862 238.16H131.983L140.059 224.566L142.862 238.16Z" fill="#222222"/>
<path d="M424.434 326C428.793 326.013 432.969 327.745 436.052 330.816C439.134 333.888 440.871 338.051 440.884 342.395L440.884 449.48C440.871 453.825 439.134 457.987 436.052 461.059C432.969 464.13 428.793 465.862 424.434 465.875L280.258 465.875C278.213 465.875 276.251 465.065 274.805 463.624C273.359 462.183 272.546 460.228 272.546 458.189C272.546 456.151 273.358 454.196 274.805 452.755C276.251 451.314 278.213 450.504 280.258 450.504L305.99 450.504C308.036 450.504 309.997 449.694 311.443 448.253C312.89 446.812 313.702 444.857 313.702 442.818C313.702 440.78 312.89 438.825 311.443 437.384C309.997 435.943 308.035 435.133 305.99 435.133L293.13 435.133C291.085 435.133 289.123 434.323 287.677 432.882C286.231 431.441 285.418 429.486 285.418 427.448C285.418 425.41 286.231 423.455 287.677 422.014C289.123 420.572 291.085 419.763 293.13 419.763L320.404 419.763C322.449 419.763 324.411 418.953 325.857 417.512C327.304 416.07 328.116 414.115 328.116 412.077C328.116 410.039 327.304 408.084 325.857 406.643C324.411 405.201 322.45 404.392 320.404 404.392L267.806 404.392C265.559 404.388 263.405 403.495 261.817 401.91C260.23 400.325 259.338 398.177 259.338 395.938C259.338 393.698 260.23 391.55 261.817 389.965C263.405 388.38 265.559 387.487 267.806 387.483L327.674 387.483C329.719 387.483 331.681 386.674 333.127 385.232C334.573 383.791 335.386 381.836 335.386 379.798C335.386 377.76 334.573 375.805 333.127 374.364C331.681 372.923 329.719 372.113 327.674 372.113L251.571 372.113C250.558 372.115 249.553 371.918 248.616 371.532C247.679 371.147 246.827 370.581 246.109 369.867C245.392 369.153 244.822 368.305 244.434 367.372C244.045 366.439 243.846 365.438 243.846 364.428C243.846 363.417 244.045 362.417 244.434 361.483C244.822 360.55 245.392 359.702 246.109 358.988C246.827 358.274 247.679 357.709 248.616 357.323C249.553 356.938 250.557 356.74 251.571 356.742L313.833 356.742C315.878 356.742 317.84 355.932 319.286 354.491C320.732 353.05 321.545 351.095 321.545 349.057C321.545 347.018 320.732 345.063 319.286 343.622C317.84 342.181 315.878 341.371 313.833 341.371L290.97 341.371C288.924 341.371 286.963 340.561 285.517 339.12C284.07 337.679 283.258 335.724 283.258 333.686C283.258 331.647 284.071 329.693 285.517 328.252C286.963 326.811 288.924 326 290.97 326L424.434 326ZM365.977 419.867C364.719 419.867 363.569 420.135 362.526 420.672C361.484 421.209 360.579 421.96 359.813 422.926C359.046 423.876 358.456 424.996 358.042 426.284C357.628 427.557 357.421 428.929 357.421 430.4C357.421 431.719 357.667 432.839 358.157 433.759C358.648 434.679 359.345 435.384 360.25 435.875C361.155 436.366 362.221 436.61 363.447 436.61C364.704 436.61 365.854 436.342 366.896 435.806C367.939 435.269 368.837 434.526 369.588 433.575C370.355 432.609 370.944 431.489 371.358 430.217C371.788 428.929 372.003 427.549 372.003 426.077C372.003 424.759 371.75 423.639 371.244 422.719C370.753 421.799 370.055 421.093 369.15 420.603C368.261 420.112 367.203 419.867 365.977 419.867ZM396.759 419.867C395.348 419.867 394.098 420.073 393.01 420.487C391.921 420.886 390.979 421.431 390.182 422.121C389.4 422.811 388.748 423.593 388.227 424.467C387.721 425.341 387.345 426.261 387.1 427.227C386.87 428.193 386.754 429.136 386.754 430.056C386.754 431.497 387.038 432.708 387.605 433.689C388.173 434.655 388.963 435.384 389.975 435.875C390.987 436.366 392.144 436.61 393.447 436.61C394.75 436.61 395.908 436.366 396.92 435.875C397.947 435.384 398.752 434.702 399.335 433.828C399.918 432.939 400.209 431.888 400.209 430.677C400.209 429.68 399.964 428.837 399.474 428.147C398.998 427.457 398.369 426.936 397.587 426.583C396.82 426.215 395.993 426.031 395.104 426.031C394.383 426.031 393.723 426.138 393.125 426.353C392.64 426.518 392.198 426.765 391.798 427.09C391.838 426.941 391.882 426.794 391.93 426.651C392.098 426.192 392.313 425.77 392.573 425.387C392.849 424.988 393.171 424.651 393.539 424.375C393.922 424.084 394.36 423.861 394.851 423.708C395.341 423.555 395.893 423.478 396.506 423.478C397.058 423.478 397.58 423.539 398.07 423.662C398.576 423.769 399.044 423.968 399.474 424.26L401.543 421.04C401.006 420.672 400.309 420.388 399.45 420.188C398.592 419.974 397.694 419.867 396.759 419.867ZM350.645 419.867C349.173 419.867 347.846 420.166 346.665 420.764C345.485 421.346 344.573 422.136 343.929 423.133L346.964 425.134C347.378 424.628 347.839 424.237 348.345 423.961C348.866 423.67 349.402 423.523 349.954 423.523C350.583 423.523 351.066 423.662 351.403 423.938C351.741 424.213 351.909 424.574 351.909 425.019C351.909 425.31 351.84 425.601 351.702 425.893C351.58 426.184 351.365 426.491 351.059 426.813C350.752 427.135 350.322 427.518 349.771 427.963L342.732 433.437L342.157 436.289L354.692 436.289L355.429 432.678H349.419L352.807 430.056C353.772 429.32 354.524 428.645 355.061 428.032C355.613 427.404 356.003 426.789 356.233 426.191C356.463 425.594 356.578 424.973 356.578 424.329C356.578 423.455 356.325 422.688 355.819 422.028C355.329 421.354 354.631 420.825 353.727 420.441C352.837 420.058 351.81 419.867 350.645 419.867ZM380.001 419.867C378.529 419.867 377.202 420.166 376.021 420.764C374.841 421.346 373.929 422.136 373.285 423.133L376.32 425.134C376.734 424.628 377.195 424.237 377.701 423.961C378.222 423.67 378.759 423.523 379.311 423.523C379.939 423.523 380.422 423.662 380.76 423.938C381.097 424.213 381.266 424.574 381.266 425.019C381.266 425.31 381.197 425.601 381.059 425.893C380.936 426.184 380.722 426.491 380.415 426.813C380.108 427.135 379.679 427.518 379.127 427.963L372.089 433.437L371.514 436.289L384.049 436.289L384.785 432.678H378.775L382.163 430.056C383.129 429.32 383.88 428.645 384.417 428.032C384.969 427.404 385.36 426.789 385.59 426.191C385.82 425.594 385.935 424.973 385.935 424.329C385.935 423.455 385.682 422.688 385.176 422.028C384.685 421.354 383.987 420.825 383.083 420.441C382.194 420.058 381.166 419.867 380.001 419.867ZM393.677 429.297C394.305 429.297 394.804 429.458 395.172 429.78C395.54 430.102 395.725 430.547 395.725 431.114C395.725 431.819 395.502 432.371 395.058 432.77C394.613 433.168 394.061 433.368 393.401 433.368C392.957 433.368 392.573 433.284 392.251 433.115C391.944 432.931 391.707 432.701 391.538 432.425C391.385 432.134 391.309 431.812 391.309 431.459C391.309 431.03 391.408 430.654 391.607 430.332C391.822 429.995 392.106 429.742 392.458 429.573C392.811 429.389 393.217 429.297 393.677 429.297ZM365.54 423.593C366.107 423.593 366.559 423.792 366.896 424.19C367.249 424.589 367.426 425.256 367.426 426.191C367.426 426.835 367.349 427.541 367.195 428.308C367.057 429.074 366.843 429.803 366.552 430.493C366.26 431.183 365.893 431.758 365.448 432.218C365.004 432.662 364.482 432.885 363.884 432.885C363.317 432.885 362.857 432.686 362.504 432.287C362.167 431.889 361.998 431.221 361.998 430.286C361.998 429.642 362.067 428.937 362.205 428.17C362.358 427.403 362.581 426.674 362.872 425.984C363.163 425.295 363.531 424.728 363.976 424.283C364.42 423.823 364.942 423.593 365.54 423.593ZM359.334 371.902L370.078 392.157L350.094 413.902H364.314L375.277 401.287L381.654 413.902L394.494 413.902L383.067 392.869L402.234 371.902L388.794 371.902L378.128 383.941L371.994 371.902L359.334 371.902Z" fill="#222222"/>
<path d="M339.19 163C343.549 163.013 347.726 164.744 350.809 167.815C353.891 170.887 355.629 175.05 355.642 179.395L355.642 286.48C355.629 290.824 353.891 294.986 350.809 298.058C347.726 301.129 343.55 302.861 339.19 302.874L231.738 302.874C227.379 302.861 223.202 301.129 220.119 298.058C217.037 294.986 215.3 290.823 215.287 286.48L215.287 179.395C215.3 175.05 217.037 170.887 220.119 167.815C223.202 164.744 227.379 163.013 231.738 163L339.19 163ZM290.688 211.818C286.569 211.818 282.988 212.438 279.948 213.678C276.948 214.918 274.628 216.658 272.988 218.898C271.348 221.138 270.528 223.778 270.528 226.818C270.528 228.698 270.889 230.278 271.608 231.558C272.368 232.838 273.348 233.898 274.548 234.738C275.748 235.538 277.068 236.218 278.508 236.778C279.988 237.298 281.449 237.758 282.889 238.158C284.368 238.518 285.708 238.878 286.908 239.238C288.108 239.598 289.068 240.038 289.788 240.558C290.548 241.038 290.928 241.698 290.928 242.538C290.928 243.298 290.648 243.958 290.088 244.518C289.528 245.078 288.708 245.518 287.628 245.838C286.548 246.118 285.248 246.258 283.729 246.258C282.129 246.258 280.528 246.098 278.928 245.778C277.328 245.458 275.748 244.998 274.188 244.398C272.668 243.758 271.188 242.998 269.748 242.118L265.068 250.998C266.348 251.838 267.889 252.618 269.688 253.338C271.488 254.018 273.489 254.538 275.688 254.898C277.888 255.298 280.188 255.498 282.588 255.498C286.708 255.498 290.288 254.878 293.328 253.638C296.368 252.398 298.709 250.658 300.349 248.418C301.989 246.178 302.809 243.558 302.809 240.558C302.809 238.718 302.448 237.178 301.729 235.938C301.009 234.698 300.028 233.678 298.788 232.878C297.548 232.038 296.208 231.378 294.769 230.898C293.329 230.379 291.869 229.938 290.389 229.578C288.949 229.178 287.608 228.798 286.368 228.438C285.168 228.079 284.208 227.638 283.488 227.118C282.768 226.598 282.408 225.938 282.408 225.138C282.408 224.378 282.688 223.698 283.248 223.098C283.848 222.458 284.708 221.958 285.828 221.598C286.988 221.238 288.368 221.058 289.968 221.058C292.048 221.058 294.068 221.338 296.028 221.898C298.028 222.418 299.848 223.198 301.488 224.238L305.809 215.418C303.929 214.258 301.688 213.378 299.088 212.778C296.488 212.138 293.688 211.818 290.688 211.818Z" fill="#222222"/>
<path d="M494.968 163C499.327 163.013 503.504 164.744 506.586 167.815C509.668 170.887 511.406 175.05 511.419 179.395L511.419 286.48C511.406 290.824 509.668 294.986 506.586 298.058C503.504 301.129 499.327 302.861 494.968 302.874L387.515 302.874C383.156 302.861 378.979 301.129 375.896 298.058C372.814 294.986 371.077 290.824 371.064 286.48L371.064 179.395C371.077 175.05 372.814 170.887 375.896 167.815C378.979 164.744 383.156 163.013 387.515 163L494.968 163ZM425.982 212.658L417.582 254.658L439.063 254.658C442.942 254.658 446.483 254.099 449.683 252.979C452.883 251.819 455.642 250.178 457.962 248.058C460.282 245.898 462.082 243.338 463.362 240.378C464.642 237.378 465.282 234.018 465.282 230.298C465.282 226.658 464.442 223.538 462.763 220.938C461.083 218.299 458.662 216.258 455.502 214.818C452.382 213.378 448.622 212.658 444.223 212.658L425.982 212.658ZM442.902 222.138C445.182 222.138 447.083 222.498 448.603 223.218C450.162 223.898 451.322 224.898 452.082 226.218C452.882 227.538 453.282 229.138 453.282 231.018C453.282 233.698 452.742 236.118 451.662 238.278C450.582 240.398 449.022 242.078 446.982 243.318C444.943 244.558 442.423 245.178 439.423 245.178L431.383 245.178L435.942 222.138H442.902Z" fill="#222222"/>
<path d="M310.918 111.342C309.967 111.342 309.041 111.251 308.14 111.067C307.256 110.9 306.447 110.667 305.713 110.366C304.995 110.066 304.386 109.741 303.886 109.39L305.538 106.262C306.088 106.646 306.672 106.979 307.289 107.263C307.923 107.53 308.583 107.738 309.267 107.889C309.951 108.022 310.635 108.089 311.319 108.089C312.07 108.089 312.712 108.005 313.246 107.839C313.797 107.672 314.214 107.438 314.497 107.138C314.798 106.837 314.948 106.47 314.948 106.037C314.948 105.636 314.789 105.311 314.472 105.06C314.155 104.81 313.738 104.602 313.221 104.435C312.72 104.251 312.161 104.076 311.544 103.909C310.927 103.742 310.301 103.55 309.667 103.334C309.05 103.1 308.482 102.816 307.965 102.483C307.465 102.132 307.056 101.69 306.739 101.156C306.422 100.622 306.263 99.9549 306.263 99.154C306.263 97.9527 306.589 96.9099 307.239 96.0256C307.907 95.1413 308.841 94.4572 310.042 93.9733C311.244 93.4728 312.654 93.2225 314.272 93.2225C315.457 93.2225 316.575 93.356 317.626 93.6229C318.677 93.8732 319.578 94.2403 320.329 94.7242L318.802 97.8275C318.135 97.3771 317.392 97.0434 316.575 96.8265C315.757 96.5929 314.914 96.4761 314.047 96.4761C313.263 96.4761 312.587 96.5678 312.02 96.7514C311.469 96.9349 311.044 97.1935 310.743 97.5272C310.46 97.8442 310.318 98.2113 310.318 98.6284C310.318 99.0455 310.468 99.3876 310.768 99.6545C311.085 99.9048 311.502 100.122 312.02 100.305C312.537 100.472 313.104 100.639 313.721 100.806C314.339 100.973 314.956 101.165 315.574 101.381C316.191 101.598 316.758 101.874 317.275 102.207C317.793 102.541 318.21 102.967 318.527 103.484C318.844 103.984 319.002 104.618 319.002 105.386C319.002 106.587 318.669 107.638 318.001 108.539C317.334 109.424 316.391 110.116 315.173 110.617C313.972 111.1 312.554 111.342 310.918 111.342ZM322.023 111.042L325.527 93.5228H332.61C334.795 93.5228 336.48 94.0067 337.665 94.9744C338.866 95.9255 339.467 97.2603 339.467 98.9788C339.467 100.447 339.125 101.732 338.441 102.833C337.757 103.918 336.772 104.752 335.488 105.336C334.22 105.92 332.71 106.212 330.958 106.212H325.277L327.429 104.36L326.102 111.042H322.023ZM327.329 104.835L325.902 102.908H331.133C332.468 102.908 333.502 102.608 334.236 102.007C334.987 101.39 335.363 100.497 335.363 99.3292C335.363 98.4783 335.079 97.8526 334.512 97.4521C333.944 97.035 333.143 96.8265 332.109 96.8265H327.179L329.331 94.8493L327.329 104.835ZM347.192 100.581H355.626L355 103.734H346.566L347.192 100.581ZM346.041 107.788H355.601L354.925 111.042H341.361L344.864 93.5228H358.104L357.428 96.7764H348.243L346.041 107.788ZM365.234 100.581H373.668L373.043 103.734H364.608L365.234 100.581ZM364.083 107.788H373.643L372.968 111.042H359.403L362.907 93.5228H376.146L375.47 96.7764H366.285L364.083 107.788ZM377.445 111.042L380.949 93.5228H388.282C390.084 93.5228 391.627 93.8232 392.912 94.4238C394.213 95.0078 395.206 95.8504 395.89 96.9516C396.574 98.0361 396.916 99.3292 396.916 100.831C396.916 102.383 396.649 103.784 396.115 105.035C395.598 106.287 394.856 107.363 393.888 108.264C392.92 109.148 391.769 109.832 390.434 110.316C389.099 110.8 387.623 111.042 386.004 111.042H377.445ZM382.175 107.713H386.129C387.548 107.713 388.749 107.421 389.733 106.837C390.735 106.253 391.494 105.461 392.011 104.46C392.545 103.459 392.812 102.324 392.812 101.056C392.812 100.188 392.628 99.446 392.261 98.8286C391.894 98.1946 391.335 97.7108 390.584 97.3771C389.85 97.0267 388.933 96.8515 387.831 96.8515H384.353L382.175 107.713ZM399.373 111.042L402.877 93.5228H410.01C412.196 93.5228 413.881 93.9984 415.065 94.9494C416.267 95.9004 416.867 97.2352 416.867 98.9538C416.867 100.422 416.517 101.698 415.816 102.783C415.132 103.851 414.148 104.677 412.863 105.261C411.595 105.845 410.093 106.137 408.358 106.137H402.652L404.779 104.36L403.453 111.042H399.373ZM410.636 111.042L407.057 104.685H411.311L414.915 111.042H410.636ZM404.679 104.835L403.278 102.908H408.508C409.86 102.908 410.903 102.608 411.637 102.007C412.388 101.39 412.763 100.497 412.763 99.3292C412.763 98.4783 412.471 97.8526 411.887 97.4521C411.32 97.035 410.519 96.8265 409.484 96.8265H404.554L406.681 94.8493L404.679 104.835ZM427.288 111.342C425.586 111.342 424.168 111.009 423.033 110.341C421.898 109.674 421.097 108.748 420.63 107.563C420.18 106.362 420.113 104.952 420.43 103.334L422.382 93.5228H426.462L424.51 103.258C424.359 104.043 424.318 104.727 424.384 105.311C424.451 105.895 424.618 106.379 424.885 106.762C425.169 107.146 425.552 107.43 426.036 107.613C426.52 107.797 427.087 107.889 427.738 107.889C428.556 107.889 429.265 107.73 429.865 107.413C430.466 107.096 430.967 106.595 431.367 105.911C431.768 105.227 432.076 104.343 432.293 103.258L434.245 93.5228H438.225L436.247 103.509C435.73 106.095 434.721 108.047 433.219 109.365C431.717 110.683 429.74 111.342 427.288 111.342ZM440.004 111.042L443.508 93.5228H446.861L454.394 106.212L453.068 106.137L455.571 93.5228H459.575L456.071 111.042H452.743L445.184 98.3531L446.536 98.4282L444.008 111.042H440.004ZM461.468 111.042L464.971 93.5228H468.325L475.858 106.212L474.532 106.137L477.035 93.5228H481.039L477.535 111.042H474.207L466.648 98.3531L468 98.4282L465.472 111.042H461.468ZM482.932 111.042L486.435 93.5228H490.515L487.011 111.042H482.932ZM492.395 111.042L495.899 93.5228H499.253L506.786 106.212L505.459 106.137L507.962 93.5228H511.966L508.463 111.042H505.134L497.576 98.3531L498.927 98.4282L496.399 111.042H492.395ZM523.069 111.342C521.3 111.342 519.765 111.025 518.464 110.391C517.179 109.741 516.178 108.848 515.461 107.713C514.76 106.562 514.41 105.236 514.41 103.734C514.41 102.249 514.668 100.864 515.185 99.5795C515.719 98.2947 516.47 97.1852 517.438 96.2508C518.406 95.2998 519.565 94.5573 520.917 94.0234C522.268 93.4895 523.77 93.2225 525.422 93.2225C527.09 93.2225 528.533 93.4895 529.751 94.0234C530.986 94.5406 531.979 95.2914 532.73 96.2759L529.826 98.6284C529.242 97.9277 528.575 97.4271 527.824 97.1268C527.09 96.8265 526.231 96.6763 525.246 96.6763C524.212 96.6763 523.278 96.8515 522.443 97.2019C521.626 97.5356 520.925 98.0111 520.341 98.6284C519.757 99.2458 519.307 99.9716 518.99 100.806C518.673 101.623 518.514 102.516 518.514 103.484C518.514 104.368 518.706 105.144 519.09 105.811C519.473 106.462 520.041 106.971 520.792 107.338C521.559 107.705 522.493 107.889 523.595 107.889C524.429 107.889 525.23 107.747 525.997 107.463C526.765 107.179 527.507 106.737 528.225 106.137L529.776 109.215C528.892 109.899 527.866 110.425 526.698 110.792C525.547 111.159 524.337 111.342 523.069 111.342ZM526.222 108.589L527.524 102.007H531.228L529.776 109.215L526.222 108.589ZM310.493 126.406H318.927L318.251 129.66H309.842L310.493 126.406ZM308.891 136.042H304.812L308.316 118.523H321.555L320.879 121.776H311.719L308.891 136.042ZM330.961 136.342C329.193 136.342 327.666 136.025 326.381 135.391C325.113 134.741 324.137 133.848 323.453 132.713C322.769 131.562 322.427 130.236 322.427 128.734C322.427 127.232 322.686 125.848 323.203 124.579C323.72 123.295 324.454 122.185 325.405 121.251C326.373 120.3 327.516 119.557 328.834 119.023C330.169 118.489 331.645 118.223 333.264 118.223C335.032 118.223 336.551 118.548 337.819 119.199C339.104 119.833 340.088 120.725 340.772 121.877C341.456 123.011 341.798 124.329 341.798 125.831C341.798 127.332 341.54 128.726 341.022 130.01C340.505 131.278 339.763 132.388 338.795 133.339C337.844 134.273 336.701 135.008 335.366 135.541C334.048 136.075 332.58 136.342 330.961 136.342ZM331.312 132.889C332.296 132.889 333.18 132.713 333.965 132.363C334.765 131.996 335.441 131.495 335.992 130.861C336.542 130.227 336.959 129.502 337.243 128.684C337.543 127.85 337.694 126.974 337.694 126.056C337.694 125.188 337.51 124.429 337.143 123.779C336.776 123.111 336.234 122.594 335.516 122.227C334.815 121.86 333.948 121.676 332.913 121.676C331.929 121.676 331.045 121.86 330.26 122.227C329.476 122.577 328.801 123.069 328.233 123.704C327.683 124.338 327.257 125.072 326.957 125.906C326.673 126.723 326.531 127.591 326.531 128.509C326.531 129.376 326.715 130.144 327.082 130.811C327.466 131.462 328.008 131.971 328.709 132.338C329.426 132.705 330.294 132.889 331.312 132.889ZM344.245 136.042L347.748 118.523H354.881C357.067 118.523 358.752 118.998 359.937 119.949C361.138 120.9 361.739 122.235 361.739 123.954C361.739 125.422 361.388 126.698 360.688 127.783C360.003 128.851 359.019 129.677 357.734 130.261C356.466 130.845 354.965 131.137 353.229 131.137H347.523L349.65 129.36L348.324 136.042H344.245ZM355.507 136.042L351.928 129.685H356.183L359.787 136.042H355.507ZM349.55 129.835L348.149 127.908H353.38C354.731 127.908 355.774 127.608 356.508 127.007C357.259 126.39 357.634 125.497 357.634 124.329C357.634 123.478 357.342 122.853 356.758 122.452C356.191 122.035 355.39 121.826 354.356 121.826H349.425L351.553 119.849L349.55 129.835ZM381.449 136.342C379.664 136.342 378.121 136.025 376.819 135.391C375.534 134.741 374.542 133.848 373.841 132.713C373.14 131.562 372.79 130.236 372.79 128.734C372.79 127.249 373.048 125.864 373.566 124.579C374.099 123.295 374.842 122.185 375.793 121.251C376.761 120.3 377.904 119.557 379.222 119.023C380.557 118.489 382.041 118.223 383.677 118.223C385.245 118.223 386.63 118.489 387.831 119.023C389.032 119.557 389.942 120.325 390.559 121.326L387.631 123.729C387.18 123.061 386.605 122.552 385.904 122.202C385.203 121.851 384.369 121.676 383.401 121.676C382.417 121.676 381.524 121.851 380.723 122.202C379.922 122.536 379.23 123.019 378.646 123.653C378.079 124.271 377.645 124.997 377.345 125.831C377.044 126.665 376.894 127.549 376.894 128.484C376.894 129.368 377.086 130.144 377.47 130.811C377.854 131.462 378.412 131.971 379.147 132.338C379.881 132.705 380.765 132.889 381.8 132.889C382.701 132.889 383.543 132.73 384.327 132.413C385.111 132.079 385.821 131.562 386.455 130.861L388.857 133.314C387.94 134.382 386.847 135.158 385.579 135.642C384.327 136.109 382.951 136.342 381.449 136.342ZM407.362 118.523H411.417L407.913 136.042H403.859L407.362 118.523ZM395.925 136.042H391.845L395.349 118.523H399.429L395.925 136.042ZM405.611 128.859H397.076L397.752 125.43H406.286L405.611 128.859ZM411.007 136.042L422.319 118.523H426.349L430.653 136.042H426.599L423.195 120.525H424.797L415.337 136.042H411.007ZM415.687 132.288L417.339 129.21H426.374L426.849 132.288H415.687ZM433.722 136.042L437.226 118.523H444.359C446.545 118.523 448.23 118.998 449.415 119.949C450.616 120.9 451.217 122.235 451.217 123.954C451.217 125.422 450.866 126.698 450.165 127.783C449.481 128.851 448.497 129.677 447.212 130.261C445.944 130.845 444.442 131.137 442.707 131.137H437.001L439.128 129.36L437.802 136.042H433.722ZM444.985 136.042L441.406 129.685H445.66L449.264 136.042H444.985ZM439.028 129.835L437.627 127.908H442.857C444.209 127.908 445.252 127.608 445.986 127.007C446.737 126.39 447.112 125.497 447.112 124.329C447.112 123.478 446.82 122.853 446.236 122.452C445.669 122.035 444.868 121.826 443.833 121.826H438.903L441.03 119.849L439.028 129.835ZM453.378 136.042L456.882 118.523H460.961L457.457 136.042H453.378ZM466.47 136.042L469.298 121.826H463.692L464.368 118.523H479.635L478.959 121.826H473.378L470.525 136.042H466.47ZM483.576 136.042L485.003 128.834L485.453 131.387L480.298 118.523H484.352L488.281 128.359L485.829 128.384L493.762 118.523H497.942L487.681 131.412L489.057 128.834L487.631 136.042H483.576Z" fill="#222222"/>
</svg>
