<svg width="922" height="591" viewBox="0 0 546 345" fill="none" xmlns="http://www.w3.org/2000/svg">
<path fill-rule="evenodd" clip-rule="evenodd" d="M167.52 0H315.664C320.299 0.013535 324.74 1.85812 328.017 5.13085C331.295 8.40358 333.142 12.8385 333.156 17.4668V131.556C333.142 136.184 331.295 140.619 328.017 143.892C324.74 147.164 320.299 149.009 315.664 149.023H172.44C170.265 149.023 168.179 148.16 166.642 146.624C165.104 145.089 164.24 143.006 164.24 140.835C164.24 138.663 165.104 136.58 166.642 135.045C168.179 133.509 170.265 132.647 172.44 132.647H224.918C227.093 132.647 229.179 131.784 230.717 130.248C232.254 128.713 233.118 126.63 233.118 124.458C233.118 122.287 232.254 120.204 230.717 118.669C229.179 117.133 227.093 116.27 224.918 116.27H138.001C135.826 116.27 133.74 115.408 132.203 113.872C130.665 112.337 129.801 110.254 129.801 108.082C129.801 105.911 130.665 103.828 132.203 102.293C133.74 100.757 135.826 99.8943 138.001 99.8943H205.239C207.414 99.8943 209.499 99.0316 211.037 97.496C212.575 95.9605 213.439 93.8778 213.439 91.7062C213.439 89.5346 212.575 87.452 211.037 85.9164C209.499 84.3808 207.414 83.5182 205.239 83.5182H173.26C170.868 83.5182 168.573 82.5692 166.882 80.8801C165.19 79.191 164.24 76.9001 164.24 74.5113C164.24 72.1225 165.19 69.8316 166.882 68.1425C168.573 66.4534 170.868 65.5045 173.26 65.5045H197.039C199.214 65.5045 201.3 64.6418 202.837 63.1062C204.375 61.5707 205.239 59.488 205.239 57.3164C205.239 55.1448 204.375 53.0621 202.837 51.5266C201.3 49.991 199.214 49.1283 197.039 49.1283H151.12C148.946 49.1283 146.86 48.2657 145.322 46.7301C143.785 45.1946 142.921 43.1119 142.921 40.9403C142.921 38.7687 143.785 36.686 145.322 35.1505C146.86 33.6149 148.946 32.7522 151.12 32.7522H233.118C235.293 32.7522 237.379 31.8896 238.916 30.354C240.454 28.8184 241.318 26.7358 241.318 24.5642C241.318 22.3926 240.454 20.3099 238.916 18.7743C237.379 17.2388 235.293 16.3761 233.118 16.3761H167.52C165.345 16.3761 163.26 15.5134 161.722 13.9779C160.184 12.4423 159.32 10.3597 159.32 8.18806C159.32 6.01645 160.184 3.93379 161.722 2.39823C163.26 0.862668 165.345 0 167.52 0ZM223.107 49.0956L229.48 101.018H245.265L261.801 69.6804L265.57 101.018H281.281L308.478 49.0956H293.953L276.325 82.7207L272.61 49.0956H259.049L241.55 82.265L237.558 49.0956H223.107Z" fill="white"/>
<path d="M143.975 245.258L140.512 228.455L130.539 245.258H143.975Z" fill="white"/>
<path fill-rule="evenodd" clip-rule="evenodd" d="M37.7339 165.364H194.077C198.712 165.378 203.154 167.222 206.431 170.495C209.708 173.768 211.556 178.203 211.569 182.831V296.92C211.556 301.548 209.708 305.983 206.431 309.256C203.154 312.529 198.712 314.373 194.077 314.387H45.9337C43.7589 314.387 41.6733 313.524 40.1356 311.989C38.5978 310.453 37.7339 308.37 37.7339 306.199C37.7339 304.027 38.5978 301.945 40.1356 300.409C41.6733 298.873 43.7589 298.011 45.9337 298.011H91.8524C94.0271 298.011 96.1128 297.148 97.6505 295.612C99.1883 294.077 100.052 291.994 100.052 289.823C100.052 287.651 99.1883 285.568 97.6505 284.033C96.1128 282.497 94.0271 281.635 91.8524 281.635H32.814C30.6393 281.635 28.5537 280.772 27.0159 279.236C25.4781 277.701 24.6142 275.618 24.6142 273.447C24.6142 271.275 25.4781 269.192 27.0159 267.657C28.5537 266.121 30.6393 265.258 32.814 265.258H80.3727C82.5474 265.258 84.6331 264.396 86.1708 262.86C87.7086 261.325 88.5725 259.242 88.5725 257.07C88.5725 254.899 87.7086 252.816 86.1708 251.281C84.6331 249.745 82.5474 248.882 80.3727 248.882H53.3134C50.924 248.878 48.6338 247.927 46.9456 246.239C45.2575 244.55 44.3093 242.262 44.3093 239.876C44.3093 237.489 45.2575 235.201 46.9456 233.512C48.6338 231.824 50.924 230.873 53.3134 230.869H98.4123C100.587 230.869 102.673 230.006 104.21 228.47C105.748 226.935 106.612 224.852 106.612 222.681C106.612 220.509 105.748 218.426 104.21 216.891C102.673 215.355 100.587 214.493 98.4123 214.493H8.21468C7.13661 214.494 6.06875 214.284 5.07218 213.874C4.07562 213.463 3.16993 212.86 2.40693 212.1C1.64393 211.339 1.03861 210.436 0.625597 209.441C0.212588 208.447 0 207.381 0 206.304C0 205.228 0.212588 204.162 0.625597 203.168C1.03861 202.173 1.64393 201.27 2.40693 200.509C3.16993 199.749 4.07562 199.146 5.07218 198.735C6.06875 198.325 7.13661 198.114 8.21468 198.116H111.532C113.707 198.116 115.792 197.254 117.33 195.718C118.868 194.183 119.732 192.1 119.732 189.928C119.732 187.757 118.868 185.674 117.33 184.139C115.792 182.603 113.707 181.74 111.532 181.74H37.7339C35.5592 181.74 33.4735 180.878 31.9358 179.342C30.398 177.807 29.5341 175.724 29.5341 173.552C29.5341 171.381 30.398 169.298 31.9358 167.762C33.4735 166.227 35.5592 165.364 37.7339 165.364ZM135.909 214.253L102.635 266.176H118.124L124.111 256.088H146.206L148.285 266.176H162.884L150.36 214.253H135.909Z" fill="white"/>
<path fill-rule="evenodd" clip-rule="evenodd" d="M245.467 165.367H359.719C364.354 165.38 368.795 167.225 372.072 170.497C375.35 173.77 377.197 178.205 377.211 182.833V296.922C377.197 301.551 375.35 305.986 372.072 309.258C368.795 312.531 364.354 314.376 359.719 314.389H245.467C240.832 314.376 236.39 312.531 233.113 309.258C229.836 305.986 227.988 301.551 227.975 296.922V182.833C227.988 178.205 229.836 173.77 233.113 170.497C236.39 167.225 240.832 165.38 245.467 165.367ZM290.485 266.427C293.202 266.922 296.043 267.169 299.007 267.169C304.096 267.169 308.517 266.403 312.272 264.87C316.027 263.337 318.917 261.186 320.943 258.416C322.968 255.647 323.981 252.408 323.981 248.699C323.981 246.425 323.536 244.521 322.647 242.988C321.758 241.455 320.547 240.194 319.016 239.205C317.484 238.167 315.829 237.351 314.051 236.757C312.272 236.114 310.469 235.57 308.641 235.125C306.862 234.631 305.207 234.161 303.676 233.716C302.193 233.271 301.008 232.727 300.118 232.084C299.229 231.441 298.785 230.625 298.785 229.636C298.785 228.697 299.13 227.856 299.822 227.114C300.563 226.323 301.625 225.705 303.009 225.26C304.441 224.815 306.146 224.592 308.122 224.592C310.691 224.592 313.186 224.939 315.607 225.631C318.077 226.274 320.325 227.238 322.351 228.524L327.686 217.62C325.364 216.186 322.598 215.098 319.386 214.356C316.175 213.565 312.717 213.169 309.011 213.169C303.923 213.169 299.501 213.936 295.746 215.469C292.041 217.002 289.175 219.153 287.15 221.922C285.124 224.691 284.111 227.955 284.111 231.713C284.111 234.037 284.556 235.991 285.445 237.573C286.384 239.156 287.594 240.466 289.077 241.504C290.559 242.493 292.189 243.334 293.968 244.026C295.796 244.669 297.599 245.238 299.377 245.732C301.205 246.177 302.86 246.623 304.343 247.068C305.825 247.513 307.01 248.057 307.9 248.699C308.838 249.293 309.308 250.109 309.308 251.147C309.308 252.087 308.962 252.903 308.27 253.595C307.579 254.287 306.566 254.831 305.232 255.227C303.898 255.573 302.292 255.746 300.415 255.746C298.439 255.746 296.463 255.548 294.486 255.153C292.51 254.757 290.559 254.188 288.632 253.447C286.754 252.655 284.927 251.716 283.148 250.628L277.368 261.606C278.949 262.644 280.851 263.609 283.074 264.499C285.297 265.339 287.767 265.982 290.485 266.427Z" fill="white"/>
<path d="M465.757 254.411H455.827L461.459 225.928H470.056C472.872 225.928 475.218 226.373 477.096 227.263C479.022 228.103 480.455 229.34 481.394 230.972C482.382 232.603 482.876 234.581 482.876 236.906C482.876 240.219 482.209 243.21 480.875 245.881C479.541 248.502 477.614 250.579 475.095 252.112C472.575 253.644 469.463 254.411 465.757 254.411Z" fill="white"/>
<path fill-rule="evenodd" clip-rule="evenodd" d="M411.103 165.367H525.355C529.99 165.38 534.431 167.225 537.709 170.497C540.986 173.77 542.833 178.205 542.847 182.833V296.922C542.833 301.551 540.986 305.985 537.709 309.258C534.431 312.531 529.99 314.376 525.355 314.389H411.103C406.468 314.376 402.027 312.531 398.749 309.258C395.472 305.985 393.624 301.551 393.611 296.922V182.833C393.624 178.205 395.472 173.77 398.749 170.497C402.027 167.225 406.468 165.38 411.103 165.367ZM449.157 214.208L438.782 266.131H465.313C470.105 266.131 474.477 265.438 478.43 264.054C482.382 262.62 485.791 260.592 488.656 257.971C491.522 255.301 493.745 252.136 495.326 248.477C496.907 244.768 497.697 240.614 497.697 236.015C497.697 231.516 496.66 227.658 494.585 224.444C492.51 221.18 489.521 218.658 485.618 216.878C481.764 215.098 477.12 214.208 471.686 214.208H449.157Z" fill="white"/>
<path d="M346.577 148.801L348.424 139.633L371.026 122.037C372.799 120.608 374.178 119.376 375.163 118.341C376.148 117.306 376.837 116.32 377.231 115.383C377.674 114.447 377.896 113.51 377.896 112.574C377.896 111.144 377.354 109.986 376.271 109.099C375.187 108.212 373.636 107.768 371.617 107.768C369.844 107.768 368.121 108.236 366.447 109.173C364.822 110.06 363.344 111.317 362.015 112.944L352.265 106.511C354.333 103.308 357.263 100.769 361.054 98.8963C364.846 96.974 369.106 96.0129 373.833 96.0129C377.576 96.0129 380.875 96.629 383.731 97.8612C386.636 99.0934 388.877 100.794 390.453 102.963C392.078 105.082 392.89 107.546 392.89 110.356C392.89 112.426 392.521 114.422 391.782 116.344C391.044 118.267 389.788 120.238 388.015 122.259C386.292 124.231 383.879 126.399 380.776 128.765L363.123 142.443L361.128 137.194H389.197L386.833 148.801H346.577Z" fill="white"/>
<path d="M418.642 149.836C414.703 149.836 411.28 149.047 408.375 147.47C405.47 145.893 403.229 143.626 401.653 140.668C400.077 137.711 399.289 134.113 399.289 129.874C399.289 125.142 399.954 120.731 401.284 116.64C402.613 112.5 404.509 108.902 406.971 105.846C409.434 102.741 412.339 100.326 415.688 98.6005C419.036 96.8754 422.729 96.0129 426.767 96.0129C430.707 96.0129 434.105 96.8015 436.961 98.3787C439.866 99.956 442.107 102.223 443.682 105.181C445.307 108.138 446.12 111.736 446.12 115.975C446.12 120.706 445.431 125.142 444.052 129.283C442.722 133.374 440.826 136.972 438.364 140.077C435.951 143.133 433.07 145.523 429.722 147.248C426.373 148.974 422.68 149.836 418.642 149.836ZM420.046 137.859C421.966 137.859 423.64 137.144 425.068 135.715C426.496 134.236 427.678 132.388 428.614 130.17C429.55 127.952 430.239 125.611 430.682 123.146C431.175 120.682 431.421 118.415 431.421 116.344C431.421 113.338 430.854 111.194 429.722 109.912C428.639 108.631 427.186 107.99 425.364 107.99C423.443 107.99 421.769 108.729 420.341 110.208C418.913 111.637 417.731 113.461 416.796 115.679C415.86 117.897 415.146 120.238 414.653 122.703C414.21 125.167 413.989 127.434 413.989 129.505C413.989 132.511 414.53 134.655 415.614 135.937C416.746 137.218 418.224 137.859 420.046 137.859Z" fill="white"/>
<path d="M448.242 148.801L450.089 139.633L472.692 122.037C474.464 120.608 475.843 119.376 476.828 118.341C477.813 117.306 478.502 116.32 478.896 115.383C479.34 114.447 479.561 113.51 479.561 112.574C479.561 111.144 479.02 109.986 477.936 109.099C476.853 108.212 475.302 107.768 473.283 107.768C471.51 107.768 469.786 108.236 468.112 109.173C466.487 110.06 465.01 111.317 463.68 112.944L453.93 106.511C455.998 103.308 458.928 100.769 462.72 98.8963C466.512 96.974 470.771 96.0129 475.499 96.0129C479.241 96.0129 482.54 96.629 485.397 97.8612C488.302 99.0934 490.542 100.794 492.118 102.963C493.743 105.082 494.556 107.546 494.556 110.356C494.556 112.426 494.186 114.422 493.448 116.344C492.709 118.267 491.453 120.238 489.681 122.259C487.957 124.231 485.544 126.399 482.442 128.765L464.788 142.443L462.794 137.194H490.863L488.499 148.801H448.242Z" fill="white"/>
<path d="M515.432 149.836C511.69 149.836 508.12 149.368 504.722 148.431C501.374 147.446 498.468 146.016 496.006 144.143L502.802 133.719C504.624 135.099 506.716 136.158 509.08 136.898C511.493 137.637 513.931 138.007 516.393 138.007C519.397 138.007 521.686 137.489 523.262 136.454C524.887 135.37 525.7 133.891 525.7 132.018C525.7 130.54 525.084 129.381 523.853 128.543C522.622 127.705 520.48 127.287 517.427 127.287H502.58L511.222 97.0479H544.092L541.802 108.36H514.103L522.893 101.928L517.058 122.333L510.927 115.901H521.12C527.473 115.901 532.274 117.158 535.524 119.671C538.823 122.136 540.473 125.685 540.473 130.318C540.473 134.31 539.389 137.785 537.223 140.742C535.056 143.65 532.077 145.893 528.285 147.47C524.542 149.047 520.258 149.836 515.432 149.836Z" fill="white"/>
<path d="M12.6881 345C11.4946 345 10.3326 344.885 9.20198 344.654C8.09229 344.445 7.07683 344.151 6.15558 343.774C5.25528 343.397 4.49106 342.988 3.86294 342.548L5.93574 338.619C6.62668 339.101 7.35949 339.52 8.13417 339.876C8.92979 340.211 9.75682 340.473 10.6153 340.662C11.4737 340.83 12.3321 340.913 13.1906 340.913C14.1327 340.913 14.9388 340.809 15.6088 340.599C16.2998 340.39 16.8232 340.096 17.1791 339.719C17.556 339.342 17.7444 338.881 17.7444 338.336C17.7444 337.833 17.5455 337.424 17.1477 337.11C16.7499 336.795 16.2265 336.534 15.5774 336.324C14.9493 336.093 14.2479 335.873 13.4732 335.664C12.6985 335.454 11.9134 335.213 11.1178 334.941C10.3431 334.647 9.63119 334.291 8.98213 333.872C8.35401 333.432 7.84105 332.877 7.44323 332.206C7.04542 331.535 6.84652 330.697 6.84652 329.691C6.84652 328.182 7.2548 326.872 8.07136 325.762C8.90885 324.651 10.0813 323.792 11.5888 323.184C13.0963 322.555 14.8655 322.241 16.8965 322.241C18.383 322.241 19.7858 322.409 21.1049 322.744C22.424 323.058 23.5546 323.519 24.4968 324.127L22.581 328.025C21.7435 327.459 20.8118 327.04 19.7858 326.768C18.7599 326.474 17.7026 326.328 16.6138 326.328C15.6298 326.328 14.7818 326.443 14.0699 326.673C13.379 326.904 12.8451 327.229 12.4682 327.648C12.1123 328.046 11.9343 328.507 11.9343 329.031C11.9343 329.555 12.1227 329.985 12.4996 330.32C12.8974 330.634 13.4209 330.907 14.0699 331.137C14.719 331.347 15.4309 331.556 16.2055 331.766C16.9802 331.975 17.7549 332.216 18.5296 332.489C19.3043 332.761 20.0162 333.107 20.6652 333.526C21.3143 333.945 21.8377 334.48 22.2355 335.129C22.6333 335.758 22.8322 336.554 22.8322 337.518C22.8322 339.027 22.4135 340.348 21.576 341.479C20.7385 342.59 19.5555 343.46 18.0271 344.088C16.5196 344.696 14.7399 345 12.6881 345Z" fill="white"/>
<path d="M26.6228 344.623L31.0197 322.618H39.9076C42.6504 322.618 44.7651 323.226 46.2516 324.441C47.7591 325.636 48.5129 327.313 48.5129 329.471C48.5129 331.315 48.0837 332.929 47.2252 334.312C46.3668 335.674 45.1315 336.722 43.5193 337.456C41.9281 338.189 40.0332 338.556 37.8348 338.556H30.7056L33.4065 336.23L31.742 344.623H26.6228ZM33.2809 336.827L31.4908 334.406H38.0546C39.7296 334.406 41.0277 334.029 41.949 333.275C42.8912 332.499 43.3623 331.378 43.3623 329.911C43.3623 328.842 43.0063 328.057 42.2945 327.554C41.5826 327.03 40.5776 326.768 39.2795 326.768H33.0925L35.7934 324.284L33.2809 336.827Z" fill="white"/>
<path d="M58.2066 331.483H68.7904L68.0053 335.444H57.4214L58.2066 331.483ZM56.7619 340.536H68.759L67.911 344.623H50.8889L55.2858 322.618H71.8996L71.0517 326.705H59.5256L56.7619 340.536Z" fill="white"/>
<path d="M80.8472 331.483H91.431L90.6459 335.444H80.062L80.8472 331.483ZM79.4025 340.536H91.3996L90.5517 344.623H73.5296L77.9264 322.618H94.5402L93.6923 326.705H82.1662L79.4025 340.536Z" fill="white"/>
<path d="M96.1702 344.623L100.567 322.618H109.769C112.03 322.618 113.967 322.996 115.579 323.75C117.212 324.483 118.458 325.542 119.316 326.925C120.175 328.287 120.604 329.911 120.604 331.797C120.604 333.746 120.269 335.507 119.599 337.078C118.95 338.65 118.018 340.002 116.804 341.134C115.59 342.244 114.145 343.103 112.47 343.711C110.795 344.319 108.942 344.623 106.911 344.623H96.1702ZM102.106 340.442H107.068C108.848 340.442 110.355 340.075 111.591 339.342C112.847 338.608 113.799 337.613 114.449 336.355C115.119 335.098 115.454 333.673 115.454 332.08C115.454 330.99 115.223 330.058 114.763 329.283C114.302 328.486 113.601 327.878 112.658 327.459C111.737 327.019 110.586 326.799 109.204 326.799H104.838L102.106 340.442Z" fill="white"/>
<path d="M123.687 344.623L128.084 322.618H137.035C139.778 322.618 141.892 323.216 143.379 324.41C144.886 325.605 145.64 327.281 145.64 329.44C145.64 331.284 145.201 332.887 144.321 334.249C143.463 335.59 142.227 336.628 140.615 337.361C139.024 338.095 137.14 338.462 134.962 338.462H127.802L130.471 336.23L128.807 344.623H123.687ZM137.82 344.623L133.329 336.638H138.668L143.191 344.623H137.82ZM130.345 336.827L128.587 334.406H135.151C136.846 334.406 138.155 334.029 139.076 333.275C140.019 332.499 140.49 331.378 140.49 329.911C140.49 328.842 140.123 328.057 139.39 327.554C138.679 327.03 137.674 326.768 136.375 326.768H130.188L132.858 324.284L130.345 336.827Z" fill="white"/>
<path d="M158.716 345C156.581 345 154.801 344.581 153.377 343.743C151.953 342.904 150.948 341.741 150.362 340.253C149.797 338.744 149.713 336.974 150.111 334.941L152.561 322.618H157.68L155.23 334.846C155.042 335.831 154.989 336.691 155.073 337.424C155.157 338.158 155.366 338.765 155.701 339.247C156.057 339.729 156.539 340.086 157.146 340.316C157.753 340.547 158.465 340.662 159.282 340.662C160.307 340.662 161.197 340.463 161.951 340.065C162.705 339.667 163.333 339.038 163.835 338.179C164.338 337.319 164.725 336.209 164.997 334.846L167.447 322.618H172.441L169.96 335.161C169.311 338.409 168.044 340.861 166.159 342.517C164.275 344.172 161.794 345 158.716 345Z" fill="white"/>
<path d="M174.673 344.623L179.07 322.618H183.278L192.732 338.556L191.067 338.462L194.208 322.618H199.233L194.836 344.623H190.659L181.174 328.685L182.87 328.78L179.698 344.623H174.673Z" fill="white"/>
<path d="M201.608 344.623L206.004 322.618H210.213L219.666 338.556L218.002 338.462L221.142 322.618H226.167L221.77 344.623H217.593L208.109 328.685L209.805 328.78L206.633 344.623H201.608Z" fill="white"/>
<path d="M228.542 344.623L232.939 322.618H238.058L233.661 344.623H228.542Z" fill="white"/>
<path d="M240.417 344.623L244.814 322.618H249.023L258.476 338.556L256.811 338.462L259.952 322.618H264.977L260.58 344.623H256.403L246.919 328.685L248.615 328.78L245.442 344.623H240.417Z" fill="white"/>
<path d="M278.909 345C276.69 345 274.764 344.602 273.131 343.805C271.518 342.988 270.262 341.867 269.362 340.442C268.483 338.996 268.043 337.33 268.043 335.444C268.043 333.579 268.367 331.839 269.016 330.226C269.686 328.612 270.629 327.218 271.843 326.045C273.057 324.85 274.513 323.918 276.208 323.247C277.904 322.576 279.789 322.241 281.862 322.241C283.955 322.241 285.766 322.576 287.295 323.247C288.844 323.897 290.09 324.84 291.032 326.076L287.389 329.031C286.656 328.151 285.819 327.522 284.877 327.145C283.955 326.768 282.877 326.579 281.642 326.579C280.344 326.579 279.171 326.799 278.124 327.239C277.098 327.658 276.219 328.256 275.486 329.031C274.753 329.806 274.188 330.718 273.79 331.766C273.392 332.793 273.193 333.914 273.193 335.129C273.193 336.24 273.434 337.215 273.916 338.053C274.397 338.87 275.109 339.509 276.051 339.97C277.015 340.431 278.187 340.662 279.569 340.662C280.616 340.662 281.621 340.484 282.584 340.128C283.547 339.771 284.479 339.216 285.379 338.462L287.326 342.328C286.217 343.187 284.929 343.847 283.463 344.308C282.019 344.769 280.501 345 278.909 345ZM282.867 341.542L284.5 333.275H289.148L287.326 342.328L282.867 341.542Z" fill="white"/>
<path d="M310.745 332.52H321.329L320.481 336.607H309.929L310.745 332.52ZM308.735 344.623H303.616L308.013 322.618H324.627L323.779 326.705H312.284L308.735 344.623Z" fill="white"/>
<path d="M336.43 345C334.211 345 332.295 344.602 330.683 343.805C329.092 342.988 327.867 341.867 327.009 340.442C326.15 338.996 325.721 337.33 325.721 335.444C325.721 333.558 326.045 331.818 326.695 330.226C327.344 328.612 328.265 327.218 329.458 326.045C330.673 324.85 332.107 323.918 333.761 323.247C335.436 322.576 337.289 322.241 339.32 322.241C341.539 322.241 343.444 322.65 345.036 323.467C346.648 324.263 347.883 325.385 348.742 326.831C349.6 328.256 350.029 329.911 350.029 331.797C350.029 333.683 349.705 335.433 349.056 337.047C348.407 338.64 347.475 340.033 346.261 341.228C345.067 342.401 343.633 343.323 341.958 343.994C340.304 344.665 338.461 345 336.43 345ZM336.87 340.662C338.105 340.662 339.215 340.442 340.199 340.002C341.204 339.541 342.052 338.912 342.743 338.116C343.434 337.319 343.957 336.408 344.313 335.381C344.69 334.333 344.879 333.233 344.879 332.08C344.879 330.99 344.648 330.037 344.188 329.22C343.727 328.381 343.047 327.732 342.146 327.271C341.267 326.81 340.178 326.579 338.88 326.579C337.645 326.579 336.535 326.81 335.551 327.271C334.567 327.711 333.719 328.329 333.007 329.125C332.316 329.922 331.782 330.844 331.405 331.892C331.049 332.918 330.872 334.008 330.872 335.161C330.872 336.251 331.102 337.215 331.562 338.053C332.044 338.87 332.724 339.509 333.604 339.97C334.504 340.431 335.593 340.662 336.87 340.662Z" fill="white"/>
<path d="M353.099 344.623L357.496 322.618H366.447C369.19 322.618 371.304 323.216 372.791 324.41C374.298 325.605 375.052 327.281 375.052 329.44C375.052 331.284 374.612 332.887 373.733 334.249C372.875 335.59 371.639 336.628 370.027 337.361C368.436 338.095 366.551 338.462 364.374 338.462H357.213L359.883 336.23L358.218 344.623H353.099ZM367.232 344.623L362.741 336.638H368.08L372.602 344.623H367.232ZM359.757 336.827L357.999 334.406H364.562C366.258 334.406 367.567 334.029 368.488 333.275C369.43 332.499 369.901 331.378 369.901 329.911C369.901 328.842 369.535 328.057 368.802 327.554C368.09 327.03 367.085 326.768 365.787 326.768H359.6L362.27 324.284L359.757 336.827Z" fill="white"/>
<path d="M399.786 345C397.546 345 395.609 344.602 393.976 343.805C392.364 342.988 391.118 341.867 390.239 340.442C389.359 338.996 388.92 337.33 388.92 335.444C388.92 333.579 389.244 331.839 389.893 330.226C390.563 328.612 391.495 327.218 392.688 326.045C393.903 324.85 395.337 323.918 396.991 323.247C398.666 322.576 400.529 322.241 402.581 322.241C404.549 322.241 406.287 322.576 407.795 323.247C409.302 323.918 410.443 324.882 411.218 326.139L407.543 329.157C406.978 328.319 406.256 327.679 405.376 327.239C404.497 326.799 403.45 326.579 402.236 326.579C401 326.579 399.88 326.799 398.875 327.239C397.87 327.658 397.001 328.266 396.269 329.062C395.557 329.838 395.012 330.749 394.636 331.797C394.259 332.845 394.07 333.956 394.07 335.129C394.07 336.24 394.311 337.215 394.793 338.053C395.274 338.87 395.976 339.509 396.897 339.97C397.818 340.431 398.928 340.662 400.226 340.662C401.356 340.662 402.414 340.463 403.398 340.065C404.382 339.646 405.272 338.996 406.067 338.116L409.082 341.196C407.931 342.538 406.559 343.512 404.968 344.12C403.398 344.707 401.67 345 399.786 345Z" fill="white"/>
<path d="M432.304 322.618H437.392L432.995 344.623H427.907L432.304 322.618ZM417.951 344.623H412.832L417.229 322.618H422.348L417.951 344.623ZM430.106 335.601H419.396L420.244 331.294H430.954L430.106 335.601Z" fill="white"/>
<path d="M436.877 344.623L451.073 322.618H456.129L461.531 344.623H456.443L452.172 325.133H454.182L442.31 344.623H436.877ZM442.75 339.908L444.823 336.041H456.161L456.757 339.908H442.75Z" fill="white"/>
<path d="M465.382 344.623L469.779 322.618H478.73C481.473 322.618 483.587 323.216 485.074 324.41C486.581 325.605 487.335 327.281 487.335 329.44C487.335 331.284 486.895 332.887 486.016 334.249C485.158 335.59 483.922 336.628 482.31 337.361C480.719 338.095 478.835 338.462 476.657 338.462H469.496L472.166 336.23L470.501 344.623H465.382ZM479.515 344.623L475.024 336.638H480.363L484.885 344.623H479.515ZM472.04 336.827L470.282 334.406H476.845C478.541 334.406 479.85 334.029 480.771 333.275C481.713 332.499 482.184 331.378 482.184 329.911C482.184 328.842 481.818 328.057 481.085 327.554C480.373 327.03 479.368 326.768 478.07 326.768H471.883L474.553 324.284L472.04 336.827Z" fill="white"/>
<path d="M490.047 344.623L494.444 322.618H499.563L495.166 344.623H490.047Z" fill="white"/>
<path d="M506.476 344.623L510.025 326.768H502.99L503.838 322.618H522.996L522.148 326.768H515.144L511.564 344.623H506.476Z" fill="white"/>
<path d="M527.973 344.623L529.763 335.569L530.328 338.776L523.859 322.618H528.946L533.877 334.972L530.799 335.004L540.755 322.618H546L533.123 338.807L534.851 335.569L533.061 344.623H527.973Z" fill="white"/>
</svg>
