<svg id="keys-logo" width="922" height="591" viewBox="0 0 922 591" fill="none" xmlns="http://www.w3.org/2000/svg">
    <path fill-rule="evenodd" clip-rule="evenodd" d="M285.103 0.0585938H536.359C544.22 0.0815285 551.753 3.20714 557.311 8.75269C562.87 14.2982 566.003 21.813 566.026 29.6556V222.977C566.003 230.819 562.87 238.334 557.311 243.879C551.753 249.425 544.22 252.551 536.359 252.574H293.447C289.759 252.574 286.221 251.112 283.613 248.51C281.005 245.908 279.54 242.379 279.54 238.699C279.54 235.019 281.005 231.49 283.613 228.888C286.221 226.286 289.759 224.825 293.447 224.825H382.452C386.141 224.825 389.678 223.363 392.286 220.761C394.894 218.159 396.359 214.63 396.359 210.95C396.359 207.27 394.894 203.741 392.286 201.139C389.678 198.538 386.141 197.076 382.452 197.076H235.037C231.349 197.076 227.811 195.614 225.203 193.012C222.595 190.41 221.13 186.881 221.13 183.201C221.13 179.522 222.595 175.993 225.203 173.391C227.811 170.789 231.349 169.327 235.037 169.327H349.075C352.764 169.327 356.301 167.865 358.909 165.263C361.517 162.661 362.982 159.132 362.982 155.452C362.982 151.773 361.517 148.244 358.909 145.642C356.301 143.04 352.764 141.578 349.075 141.578H294.838C290.78 141.578 286.889 139.97 284.02 137.108C281.152 134.246 279.54 130.364 279.54 126.316C279.54 122.268 281.152 118.386 284.02 115.524C286.889 112.662 290.78 111.054 294.838 111.054H335.168C338.857 111.054 342.394 109.592 345.002 106.99C347.61 104.389 349.075 100.859 349.075 97.1797C349.075 93.5 347.61 89.971 345.002 87.369C342.394 84.7671 338.857 83.3053 335.168 83.3053H257.289C253.6 83.3053 250.063 81.8435 247.455 79.2416C244.847 76.6396 243.381 73.1106 243.381 69.4308C243.381 65.7511 244.847 62.2221 247.455 59.6201C250.063 57.0182 253.6 55.5564 257.289 55.5564H396.359C400.048 55.5564 403.585 54.0946 406.193 51.4927C408.801 48.8907 410.267 45.3617 410.267 41.6819C410.267 38.0022 408.801 34.4732 406.193 31.8712C403.585 29.2693 400.048 27.8075 396.359 27.8075H285.103C281.414 27.8075 277.877 26.3457 275.269 23.7438C272.661 21.1418 271.196 17.6128 271.196 13.933C271.196 10.2533 272.661 6.72429 275.269 4.12233C277.877 1.52036 281.414 0.0585938 285.103 0.0585938ZM379.138 83.2604L389.947 171.242H416.719L444.765 118.141L451.158 171.242H477.803L523.931 83.2604H499.296L469.397 140.237L463.098 83.2604H440.097L410.418 139.465L403.647 83.2604H379.138Z" fill="white"></path>
    <path d="M245.225 415.653L239.352 387.179L222.437 415.653H245.225Z" fill="white"></path>
    <path fill-rule="evenodd" clip-rule="evenodd" d="M64.9815 280.264H330.145C338.006 280.287 345.539 283.412 351.097 288.958C356.656 294.504 359.789 302.018 359.812 309.861V503.182C359.789 511.024 356.656 518.539 351.097 524.085C345.539 529.63 338.006 532.756 330.145 532.779H78.8886C75.2002 532.779 71.6629 531.317 69.0548 528.715C66.4467 526.113 64.9815 522.584 64.9815 518.904C64.9815 515.225 66.4467 511.696 69.0548 509.094C71.6629 506.492 75.2002 505.03 78.8886 505.03H156.768C160.457 505.03 163.994 503.568 166.602 500.966C169.21 498.364 170.675 494.835 170.675 491.155C170.675 487.476 169.21 483.947 166.602 481.345C163.994 478.743 160.457 477.281 156.768 477.281H56.6373C52.9489 477.281 49.4116 475.819 46.8035 473.217C44.1954 470.615 42.7302 467.086 42.7302 463.407C42.7302 459.727 44.1954 456.198 46.8035 453.596C49.4116 450.994 52.9489 449.532 56.6373 449.532H137.298C140.987 449.532 144.524 448.07 147.132 445.468C149.74 442.866 151.205 439.337 151.205 435.658C151.205 431.978 149.74 428.449 147.132 425.847C144.524 423.245 140.987 421.783 137.298 421.783H91.4049C87.3523 421.776 83.4681 420.165 80.6049 417.304C77.7417 414.442 76.1336 410.565 76.1336 406.521C76.1336 402.478 77.7417 398.6 80.6049 395.739C83.4681 392.877 87.3523 391.266 91.4049 391.259H167.894C171.582 391.259 175.12 389.798 177.728 387.196C180.336 384.594 181.801 381.065 181.801 377.385C181.801 373.705 180.336 370.176 177.728 367.574C175.12 364.972 171.582 363.511 167.894 363.511H14.916C13.0876 363.514 11.2764 363.157 9.58624 362.462C7.89604 361.766 6.35995 360.744 5.06588 359.456C3.77181 358.167 2.74516 356.636 2.04468 354.951C1.34421 353.267 0.983652 351.46 0.983652 349.636C0.983652 347.812 1.34421 346.006 2.04468 344.321C2.74516 342.636 3.77181 341.105 5.06588 339.816C6.35995 338.528 7.89604 337.506 9.58624 336.811C11.2764 336.115 13.0876 335.758 14.916 335.762H190.145C193.834 335.762 197.371 334.3 199.979 331.698C202.587 329.096 204.052 325.567 204.052 321.887C204.052 318.208 202.587 314.678 199.979 312.077C197.371 309.475 193.834 308.013 190.145 308.013H64.9815C61.2931 308.013 57.7558 306.551 55.1477 303.949C52.5396 301.347 51.0744 297.818 51.0744 294.138C51.0744 290.459 52.5396 286.93 55.1477 284.328C57.7558 281.726 61.2931 280.264 64.9815 280.264ZM231.546 363.115L175.112 451.097H201.381L211.535 434.003H249.01L252.536 451.097H277.296L256.055 363.115H231.546Z" fill="white"></path>
    <path fill-rule="evenodd" clip-rule="evenodd" d="M417.303 280.268H611.078C618.939 280.291 626.472 283.416 632.03 288.962C637.589 294.508 640.722 302.022 640.745 309.865V503.186C640.722 511.028 637.589 518.543 632.03 524.089C626.472 529.634 618.939 532.76 611.078 532.783H417.303C409.442 532.76 401.909 529.634 396.351 524.089C390.792 518.543 387.659 511.028 387.636 503.186V309.865C387.659 302.022 390.792 294.507 396.351 288.962C401.909 283.416 409.442 280.291 417.303 280.268ZM493.643 451.523C498.251 452.361 503.069 452.78 508.097 452.78C516.727 452.78 524.227 451.481 530.595 448.884C536.963 446.286 541.865 442.641 545.3 437.949C548.736 433.257 550.454 427.768 550.454 421.484C550.454 417.629 549.7 414.403 548.191 411.806C546.683 409.208 544.63 407.072 542.033 405.396C539.435 403.636 536.628 402.253 533.611 401.248C530.595 400.159 527.536 399.237 524.436 398.483C521.42 397.645 518.613 396.849 516.015 396.095C513.501 395.341 511.49 394.419 509.982 393.33C508.474 392.24 507.72 390.858 507.72 389.182C507.72 387.59 508.306 386.165 509.479 384.909C510.736 383.568 512.538 382.52 514.884 381.766C517.314 381.012 520.205 380.635 523.556 380.635C527.914 380.635 532.145 381.222 536.251 382.395C540.441 383.484 544.253 385.118 547.689 387.297L556.738 368.82C552.8 366.391 548.107 364.547 542.661 363.29C537.215 361.95 531.349 361.279 525.065 361.279C516.434 361.279 508.935 362.578 502.567 365.176C496.282 367.773 491.422 371.418 487.987 376.11C484.551 380.803 482.833 386.333 482.833 392.701C482.833 396.639 483.588 399.949 485.096 402.631C486.688 405.312 488.741 407.532 491.255 409.292C493.768 410.968 496.533 412.392 499.55 413.565C502.65 414.655 505.709 415.618 508.725 416.456C511.826 417.21 514.633 417.964 517.146 418.719C519.66 419.473 521.671 420.394 523.179 421.484C524.771 422.489 525.567 423.872 525.567 425.631C525.567 427.224 524.981 428.606 523.808 429.779C522.635 430.952 520.917 431.874 518.655 432.544C516.392 433.131 513.669 433.424 510.485 433.424C507.133 433.424 503.781 433.089 500.43 432.419C497.078 431.748 493.768 430.785 490.5 429.528C487.316 428.187 484.216 426.595 481.2 424.752L471.396 443.353C474.077 445.113 477.303 446.747 481.074 448.255C484.844 449.68 489.034 450.769 493.643 451.523Z" fill="white"></path>
    <path d="M790.795 431.162H773.953L783.505 382.898H798.085C802.861 382.898 806.841 383.652 810.026 385.16C813.293 386.584 815.723 388.679 817.315 391.444C818.991 394.209 819.829 397.561 819.829 401.499C819.829 407.113 818.698 412.183 816.436 416.708C814.173 421.149 810.905 424.668 806.632 427.265C802.359 429.863 797.08 431.162 790.795 431.162Z" fill="white"></path>
    <path fill-rule="evenodd" clip-rule="evenodd" d="M698.227 280.268H892.002C899.863 280.291 907.396 283.416 912.954 288.962C918.513 294.507 921.646 302.022 921.669 309.865V503.186C921.646 511.028 918.513 518.543 912.954 524.089C907.396 529.634 899.863 532.76 892.002 532.783H698.227C690.366 532.76 682.833 529.634 677.275 524.089C671.716 518.543 668.583 511.028 668.56 503.186V309.865C668.583 302.022 671.716 294.507 677.275 288.962C682.833 283.416 690.366 280.291 698.227 280.268ZM762.641 363.039L745.045 451.02H790.041C798.169 451.02 805.585 449.847 812.288 447.501C818.991 445.071 824.773 441.636 829.633 437.195C834.493 432.67 838.263 427.307 840.945 421.107C843.626 414.822 844.967 407.784 844.967 399.991C844.967 392.366 843.207 385.83 839.688 380.384C836.169 374.853 831.099 370.58 824.48 367.564C817.944 364.547 810.067 363.039 800.85 363.039H762.641Z" fill="white"></path>
    <path d="M593.275 253.106L596.26 238.299L632.799 209.88C635.664 207.572 637.893 205.582 639.485 203.91C641.078 202.238 642.192 200.646 642.829 199.134C643.545 197.621 643.904 196.109 643.904 194.596C643.904 192.288 643.028 190.417 641.277 188.984C639.525 187.551 637.018 186.835 633.754 186.835C630.888 186.835 628.102 187.591 625.395 189.103C622.768 190.536 620.38 192.566 618.231 195.193L602.469 184.805C605.812 179.63 610.549 175.531 616.679 172.506C622.808 169.401 629.694 167.849 637.336 167.849C643.386 167.849 648.72 168.844 653.337 170.834C658.033 172.824 661.655 175.57 664.203 179.073C666.83 182.496 668.143 186.476 668.143 191.014C668.143 194.357 667.546 197.581 666.352 200.686C665.158 203.79 663.128 206.975 660.262 210.238C657.476 213.423 653.576 216.925 648.56 220.746L620.022 242.837L616.798 234.359H662.173L658.352 253.106H593.275Z" fill="white"></path>
    <path d="M709.773 254.777C703.404 254.777 697.872 253.504 693.175 250.956C688.478 248.409 684.856 244.747 682.309 239.971C679.761 235.195 678.488 229.383 678.488 222.537C678.488 214.895 679.562 207.771 681.712 201.163C683.861 194.477 686.926 188.665 690.906 183.73C694.886 178.715 699.583 174.814 704.996 172.028C710.409 169.242 716.38 167.849 722.907 167.849C729.276 167.849 734.769 169.122 739.386 171.67C744.082 174.217 747.704 177.879 750.252 182.655C752.879 187.432 754.192 193.243 754.192 200.089C754.192 207.731 753.078 214.895 750.849 221.582C748.699 228.189 745.635 234.001 741.654 239.016C737.754 243.951 733.097 247.812 727.684 250.598C722.271 253.384 716.3 254.777 709.773 254.777ZM712.041 235.433C715.146 235.433 717.852 234.279 720.161 231.971C722.47 229.582 724.38 226.597 725.893 223.015C727.405 219.433 728.52 215.652 729.236 211.671C730.032 207.691 730.43 204.029 730.43 200.686C730.43 195.83 729.515 192.367 727.684 190.297C725.932 188.228 723.584 187.193 720.639 187.193C717.534 187.193 714.827 188.387 712.519 190.775C710.21 193.084 708.3 196.029 706.787 199.611C705.275 203.193 704.121 206.975 703.325 210.955C702.608 214.935 702.25 218.597 702.25 221.94C702.25 226.796 703.126 230.259 704.877 232.329C706.708 234.399 709.096 235.433 712.041 235.433Z" fill="white"></path>
    <path d="M757.623 253.106L760.608 238.299L797.147 209.88C800.013 207.572 802.242 205.582 803.834 203.91C805.426 202.238 806.54 200.646 807.177 199.134C807.894 197.621 808.252 196.109 808.252 194.596C808.252 192.288 807.376 190.417 805.625 188.984C803.874 187.551 801.366 186.835 798.102 186.835C795.237 186.835 792.45 187.591 789.744 189.103C787.117 190.536 784.729 192.566 782.579 195.193L766.818 184.805C770.161 179.63 774.898 175.531 781.027 172.506C787.157 169.401 794.042 167.849 801.685 167.849C807.735 167.849 813.068 168.844 817.685 170.834C822.382 172.824 826.004 175.57 828.551 179.073C831.178 182.496 832.492 186.476 832.492 191.014C832.492 194.357 831.895 197.581 830.701 200.686C829.506 203.79 827.477 206.975 824.611 210.238C821.825 213.423 817.924 216.925 812.909 220.746L784.37 242.837L781.146 234.359H826.521L822.7 253.106H757.623Z" fill="white"></path>
    <path d="M837.358 237.105L840.343 221.702L887.389 169.521H912.823L866.732 221.702L855.388 218.358H920.704L916.883 237.105H837.358ZM878.314 253.106L881.538 237.105L886.315 218.358L889.18 204.149H911.032L901.24 253.106H878.314Z" fill="white"></path>
    <path d="M15.5252 590.414C13.5011 590.414 11.5302 590.219 9.61267 589.828C7.73062 589.473 6.00836 588.976 4.4459 588.337C2.91894 587.698 1.62281 587.005 0.557495 586.26L4.07304 579.601C5.24488 580.418 6.48775 581.128 7.80164 581.732C9.15104 582.3 10.5537 582.744 12.0096 583.064C13.4656 583.348 14.9215 583.49 16.3774 583.49C17.9754 583.49 19.3426 583.312 20.4789 582.957C21.6507 582.602 22.5385 582.105 23.1422 581.466C23.7814 580.827 24.101 580.045 24.101 579.122C24.101 578.27 23.7636 577.577 23.0889 577.045C22.4142 576.512 21.5265 576.068 20.4256 575.713C19.3603 575.322 18.1707 574.95 16.8568 574.594C15.5429 574.239 14.2113 573.831 12.8619 573.369C11.548 572.872 10.3406 572.268 9.23981 571.558C8.1745 570.812 7.30449 569.872 6.62979 568.735C5.95509 567.599 5.61774 566.178 5.61774 564.474C5.61774 561.917 6.3102 559.698 7.69511 557.816C9.11553 555.934 11.1041 554.478 13.6609 553.448C16.2176 552.383 19.2183 551.85 22.6628 551.85C25.184 551.85 27.5632 552.134 29.8004 552.702C32.0376 553.235 33.9551 554.016 35.5531 555.046L32.3039 561.651C30.8835 560.692 29.3033 559.982 27.5632 559.52C25.8232 559.023 24.0299 558.774 22.1834 558.774C20.5144 558.774 19.0762 558.97 17.8689 559.36C16.697 559.751 15.7915 560.301 15.1523 561.012C14.5486 561.686 14.2468 562.468 14.2468 563.355C14.2468 564.243 14.5664 564.971 15.2056 565.539C15.8803 566.072 16.768 566.534 17.8689 566.924C18.9697 567.279 20.1771 567.634 21.4909 567.989C22.8048 568.345 24.1187 568.753 25.4326 569.215C26.7465 569.676 27.9539 570.262 29.0547 570.972C30.1555 571.683 31.0433 572.588 31.718 573.689C32.3927 574.754 32.73 576.104 32.73 577.737C32.73 580.294 32.0198 582.531 30.5994 584.449C29.179 586.331 27.1726 587.804 24.5804 588.87C22.0236 589.899 19.0052 590.414 15.5252 590.414Z" fill="white"></path>
    <path d="M39.1589 589.775L46.6161 552.489H61.6904C66.3422 552.489 69.9288 553.519 72.4501 555.579C75.0068 557.603 76.2852 560.443 76.2852 564.101C76.2852 567.226 75.5572 569.96 74.1013 572.304C72.6454 574.612 70.5502 576.388 67.8159 577.631C65.1171 578.873 61.9034 579.495 58.1748 579.495H46.0835L50.6643 575.553L47.8413 589.775H39.1589ZM50.4513 576.565L47.4151 572.464H58.5477C61.3885 572.464 63.5902 571.825 65.1526 570.546C66.7506 569.232 67.5496 567.332 67.5496 564.847C67.5496 563.036 66.9459 561.704 65.7386 560.852C64.5312 559.964 62.8267 559.52 60.625 559.52H50.1317L54.7125 555.312L50.4513 576.565Z" fill="white"></path>
    <path d="M92.726 567.51H110.677L109.345 574.222H91.3943L92.726 567.51ZM90.2758 582.851H110.623L109.185 589.775H80.3151L87.7723 552.489H115.95L114.512 559.414H94.9632L90.2758 582.851Z" fill="white"></path>
    <path d="M131.125 567.51H149.076L147.744 574.222H129.794L131.125 567.51ZM128.675 582.851H149.022L147.584 589.775H118.714L126.171 552.489H154.349L152.911 559.414H133.362L128.675 582.851Z" fill="white"></path>
    <path d="M157.113 589.775L164.571 552.489H180.178C184.013 552.489 187.297 553.128 190.032 554.407C192.802 555.65 194.914 557.443 196.37 559.786C197.826 562.095 198.554 564.847 198.554 568.043C198.554 571.345 197.986 574.328 196.85 576.991C195.749 579.655 194.169 581.945 192.109 583.863C190.049 585.745 187.599 587.201 184.758 588.23C181.918 589.26 178.775 589.775 175.33 589.775H157.113ZM167.181 582.691H175.597C178.615 582.691 181.172 582.069 183.267 580.826C185.398 579.584 187.013 577.897 188.114 575.766C189.25 573.636 189.819 571.221 189.819 568.522C189.819 566.676 189.428 565.095 188.647 563.781C187.866 562.432 186.676 561.402 185.078 560.692C183.516 559.946 181.562 559.573 179.219 559.573H171.815L167.181 582.691Z" fill="white"></path>
    <path d="M203.783 589.775L211.241 552.489H226.421C231.073 552.489 234.66 553.501 237.181 555.525C239.738 557.549 241.016 560.39 241.016 564.048C241.016 567.173 240.27 569.889 238.779 572.197C237.323 574.47 235.228 576.228 232.494 577.471C229.795 578.714 226.599 579.335 222.906 579.335H210.761L215.289 575.553L212.466 589.775H203.783ZM227.753 589.775L220.136 576.246H229.191L236.861 589.775H227.753ZM215.076 576.565L212.093 572.464H223.225C226.102 572.464 228.321 571.825 229.884 570.546C231.482 569.232 232.281 567.332 232.281 564.847C232.281 563.036 231.659 561.704 230.416 560.852C229.209 559.964 227.504 559.52 225.303 559.52H214.809L219.337 555.312L215.076 576.565Z" fill="white"></path>
    <path d="M263.193 590.414C259.571 590.414 256.553 589.704 254.138 588.284C251.724 586.863 250.019 584.892 249.025 582.371C248.066 579.814 247.924 576.814 248.599 573.369L252.753 552.489H261.436L257.281 573.209C256.961 574.878 256.873 576.334 257.015 577.577C257.157 578.82 257.512 579.85 258.08 580.667C258.684 581.483 259.5 582.087 260.53 582.478C261.56 582.868 262.767 583.064 264.152 583.064C265.892 583.064 267.401 582.726 268.68 582.052C269.958 581.377 271.024 580.312 271.876 578.856C272.728 577.4 273.385 575.518 273.847 573.209L278.001 552.489H286.471L282.263 573.742C281.162 579.246 279.013 583.401 275.817 586.206C272.622 589.012 268.414 590.414 263.193 590.414Z" fill="white"></path>
    <path d="M290.257 589.775L297.714 552.489H304.852L320.885 579.495L318.062 579.335L323.388 552.489H331.911L324.454 589.775H317.369L301.283 562.769L304.159 562.929L298.78 589.775H290.257Z" fill="white"></path>
    <path d="M335.939 589.775L343.396 552.489H350.534L366.567 579.495L363.743 579.335L369.07 552.489H377.593L370.135 589.775H363.051L346.965 562.769L349.841 562.929L344.461 589.775H335.939Z" fill="white"></path>
    <path d="M381.62 589.775L389.078 552.489H397.76L390.303 589.775H381.62Z" fill="white"></path>
    <path d="M401.761 589.775L409.219 552.489H416.356L432.389 579.495L429.566 579.335L434.893 552.489H443.415L435.958 589.775H428.874L412.787 562.769L415.664 562.929L410.284 589.775H401.761Z" fill="white"></path>
    <path d="M467.045 590.414C463.281 590.414 460.014 589.74 457.244 588.39C454.51 587.005 452.379 585.106 450.852 582.691C449.361 580.241 448.615 577.417 448.615 574.222C448.615 571.061 449.165 568.114 450.266 565.379C451.402 562.645 453 560.284 455.06 558.295C457.12 556.271 459.588 554.691 462.464 553.554C465.34 552.418 468.536 551.85 472.052 551.85C475.603 551.85 478.675 552.418 481.267 553.554C483.895 554.655 486.008 556.253 487.605 558.348L481.427 563.355C480.184 561.864 478.763 560.799 477.165 560.159C475.603 559.52 473.774 559.201 471.679 559.201C469.477 559.201 467.489 559.573 465.713 560.319C463.973 561.029 462.482 562.041 461.239 563.355C459.996 564.669 459.037 566.214 458.363 567.989C457.688 569.729 457.351 571.629 457.351 573.689C457.351 575.571 457.759 577.222 458.576 578.643C459.392 580.027 460.6 581.111 462.198 581.892C463.831 582.673 465.82 583.064 468.163 583.064C469.939 583.064 471.643 582.762 473.277 582.158C474.91 581.554 476.491 580.613 478.018 579.335L481.32 585.887C479.438 587.343 477.254 588.461 474.768 589.242C472.318 590.024 469.744 590.414 467.045 590.414ZM473.756 584.555L476.526 570.546H484.41L481.32 585.887L473.756 584.555Z" fill="white"></path>
    <path d="M521.04 569.268H538.99L537.552 576.192H519.655L521.04 569.268ZM517.631 589.775H508.948L516.406 552.489H544.583L543.145 559.414H523.65L517.631 589.775Z" fill="white"></path>
    <path d="M564.602 590.414C560.838 590.414 557.589 589.74 554.855 588.39C552.156 587.005 550.079 585.106 548.623 582.691C547.167 580.241 546.439 577.417 546.439 574.222C546.439 571.026 546.989 568.078 548.09 565.379C549.191 562.645 550.753 560.284 552.777 558.295C554.837 556.271 557.269 554.691 560.075 553.554C562.916 552.418 566.058 551.85 569.503 551.85C573.267 551.85 576.498 552.542 579.197 553.927C581.932 555.277 584.027 557.177 585.483 559.627C586.938 562.041 587.666 564.847 587.666 568.043C587.666 571.239 587.116 574.204 586.015 576.938C584.914 579.637 583.334 581.998 581.275 584.022C579.25 586.011 576.818 587.573 573.977 588.71C571.172 589.846 568.047 590.414 564.602 590.414ZM565.348 583.064C567.443 583.064 569.325 582.691 570.994 581.945C572.699 581.164 574.137 580.099 575.309 578.749C576.481 577.4 577.368 575.855 577.972 574.115C578.611 572.339 578.931 570.475 578.931 568.522C578.931 566.676 578.54 565.06 577.759 563.675C576.978 562.255 575.824 561.154 574.297 560.372C572.805 559.591 570.959 559.201 568.757 559.201C566.662 559.201 564.78 559.591 563.111 560.372C561.442 561.118 560.004 562.166 558.796 563.515C557.625 564.865 556.719 566.427 556.08 568.203C555.476 569.943 555.174 571.789 555.174 573.742C555.174 575.589 555.565 577.222 556.346 578.643C557.163 580.027 558.317 581.111 559.808 581.892C561.335 582.673 563.182 583.064 565.348 583.064Z" fill="white"></path>
    <path d="M592.873 589.775L600.33 552.489H615.511C620.163 552.489 623.75 553.501 626.271 555.525C628.828 557.549 630.106 560.39 630.106 564.048C630.106 567.173 629.36 569.889 627.869 572.197C626.413 574.47 624.318 576.228 621.583 577.471C618.885 578.714 615.689 579.335 611.996 579.335H599.851L604.379 575.553L601.555 589.775H592.873ZM616.843 589.775L609.226 576.246H618.281L625.951 589.775H616.843ZM604.166 576.565L601.183 572.464H612.315C615.192 572.464 617.411 571.825 618.973 570.546C620.571 569.232 621.37 567.332 621.37 564.847C621.37 563.036 620.749 561.704 619.506 560.852C618.299 559.964 616.594 559.52 614.393 559.52H603.899L608.427 555.312L604.166 576.565Z" fill="white"></path>
    <path d="M672.056 590.414C668.256 590.414 664.971 589.74 662.201 588.39C659.467 587.005 657.354 585.106 655.863 582.691C654.371 580.241 653.626 577.417 653.626 574.222C653.626 571.061 654.176 568.114 655.277 565.379C656.413 562.645 657.993 560.284 660.018 558.295C662.077 556.271 664.51 554.691 667.315 553.554C670.156 552.418 673.316 551.85 676.796 551.85C680.134 551.85 683.082 552.418 685.638 553.554C688.195 554.691 690.13 556.324 691.444 558.455L685.212 563.568C684.254 562.148 683.028 561.065 681.537 560.319C680.046 559.573 678.27 559.201 676.21 559.201C674.115 559.201 672.216 559.573 670.511 560.319C668.806 561.029 667.333 562.059 666.09 563.409C664.883 564.722 663.959 566.267 663.32 568.043C662.681 569.818 662.361 571.7 662.361 573.689C662.361 575.571 662.77 577.222 663.586 578.643C664.403 580.027 665.593 581.111 667.155 581.892C668.718 582.673 670.6 583.064 672.801 583.064C674.719 583.064 676.512 582.726 678.181 582.052C679.85 581.341 681.359 580.241 682.709 578.749L687.822 583.969C685.869 586.242 683.543 587.893 680.845 588.923C678.181 589.917 675.252 590.414 672.056 590.414Z" fill="white"></path>
    <path d="M727.207 552.489H735.836L728.379 589.775H719.75L727.207 552.489ZM702.864 589.775H694.182L701.639 552.489H710.322L702.864 589.775ZM723.478 574.488H705.315L706.753 567.19H724.917L723.478 574.488Z" fill="white"></path>
    <path d="M734.963 589.775L759.039 552.489H767.615L776.777 589.775H768.148L760.904 556.75H764.313L744.178 589.775H734.963ZM744.924 581.785L748.44 575.234H767.669L768.681 581.785H744.924Z" fill="white"></path>
    <path d="M783.309 589.775L790.766 552.489H805.947C810.598 552.489 814.185 553.501 816.706 555.525C819.263 557.549 820.541 560.39 820.541 564.048C820.541 567.173 819.796 569.889 818.304 572.197C816.848 574.47 814.753 576.228 812.019 577.471C809.32 578.714 806.124 579.335 802.431 579.335H790.286L794.814 575.553L791.991 589.775H783.309ZM807.278 589.775L799.661 576.246H808.716L816.387 589.775H807.278ZM794.601 576.565L791.618 572.464H802.751C805.627 572.464 807.846 571.825 809.409 570.546C811.007 569.232 811.806 567.332 811.806 564.847C811.806 563.036 811.184 561.704 809.942 560.852C808.734 559.964 807.03 559.52 804.828 559.52H794.335L798.862 555.312L794.601 576.565Z" fill="white"></path>
    <path d="M825.141 589.775L832.598 552.489H841.281L833.823 589.775H825.141Z" fill="white"></path>
    <path d="M853.006 589.775L859.025 559.52H847.093L848.531 552.489H881.023L879.585 559.52H867.707L861.635 589.775H853.006Z" fill="white"></path>
    <path d="M889.464 589.775L892.501 574.435L893.459 579.868L882.487 552.489H891.116L899.478 573.423L894.258 573.476L911.144 552.489H920.039L898.2 579.921L901.13 574.435L898.093 589.775H889.464Z" fill="white"></path>
</svg>