<svg width="500" height="491" viewBox="0 0 500 491" fill="none" xmlns="http://www.w3.org/2000/svg">
<g clip-path="url(#clip0_399_84174)">
<path fill-rule="evenodd" clip-rule="evenodd" d="M308.583 467.194L86.235 338.679C82.8589 336.727 79.621 333.516 77.2337 329.751C74.8464 325.986 73.5052 321.976 73.5052 318.603C73.5052 315.231 74.8464 312.771 77.2337 311.766L102.091 296.973L32.7699 256.906C29.3938 254.955 26.1559 251.743 23.7686 247.979C21.3813 244.214 20.0402 240.204 20.0402 236.831C20.0402 233.458 21.3813 230.998 23.7686 229.993L95.0576 188.624L53.1376 164.394C49.7614 162.443 46.5236 159.232 44.1363 155.467C41.749 151.702 40.4078 147.692 40.4078 144.319C40.4078 140.946 41.749 138.487 44.1363 137.482L71.1007 121.468C70.5697 120.774 70.0663 120.054 69.5959 119.312C68.8167 118.083 68.149 116.828 67.603 115.578C66.476 112.997 65.8674 110.436 65.8674 108.164C65.8674 104.791 67.2086 102.332 69.5959 101.327L204.325 22.7695C211.916 18.3435 222.222 19.3298 232.981 25.5116L454.512 152.804C468.744 160.981 480.304 180.986 480.304 197.438V363.265C480.304 375.742 476.006 385.222 468.361 389.61L330.294 468.856C329.524 469.437 328.679 469.923 327.762 470.31C322.674 472.452 315.779 471.332 308.583 467.194Z" fill="#6C0093"/>
<path d="M104.378 81.0596C107.361 80.4755 110.109 80.9245 112.69 82.3252C114.21 83.1501 115.699 84.0297 117.196 84.8965C126.479 90.2749 135.76 95.6576 145.042 101.037C151.367 104.702 157.701 108.351 164.014 112.035C165.65 112.99 167.099 114.18 168.285 115.675C171.034 119.141 170.736 123.547 167.623 126.828C165.497 129.07 162.88 130.533 159.99 131.571C157.08 132.616 154.074 133.152 150.985 133.408C146.432 133.785 141.996 133.26 137.689 131.862C135.869 131.271 134.1 130.429 132.438 129.479C123.601 124.427 114.802 119.309 105.996 114.206C99.6709 110.541 93.3544 106.862 87.034 103.189C85.5728 102.34 84.1149 101.486 82.6482 100.646C79.758 98.9917 76.7273 98.1178 73.3058 99.0485C75.0809 97.9316 76.9273 96.8292 78.777 95.7325C80.5858 94.6599 82.3908 93.5808 84.2117 92.5286C85.2132 91.9499 86.2585 91.4445 87.2579 90.8624C88.2938 90.2589 89.287 89.5843 90.3197 88.9751C91.1753 88.4705 92.0627 88.0186 92.9333 87.5387C94.0509 86.9227 95.1735 86.3149 96.2788 85.6782C96.9145 85.312 97.5101 84.8785 98.142 84.5053C99.4278 83.7459 100.719 82.9952 102.022 82.2637C102.768 81.8447 103.54 81.4705 104.378 81.0596Z" fill="#C601A0"/>
<path d="M138.964 60.9685C139.674 60.8944 140.297 60.7956 140.923 60.7664C143.018 60.6686 145.032 61.0868 146.845 62.0895C149.869 63.7617 152.889 65.4567 155.785 67.3322C157.836 68.6611 159.533 70.3979 160.362 72.8125C161.405 75.8514 160.615 78.4773 158.62 80.8363C156.131 83.7807 152.804 85.4395 149.173 86.5435C145.763 87.5804 142.245 88.0722 138.68 88.0215C134.188 87.9576 129.795 87.2355 125.691 85.3623C123.802 84.5003 122.038 83.3713 120.225 82.3489C119.096 81.7121 117.983 81.049 116.863 80.3965C114.247 78.8716 111.421 78.4382 108.359 78.7857C109.974 77.7421 111.671 76.7404 113.358 75.7235C114.91 74.7884 116.438 73.8135 118.002 72.8995C119.401 72.0822 120.839 71.3311 122.253 70.5385C124.554 69.2489 126.867 67.9807 129.14 66.6462C132.287 64.7994 135.4 62.8984 138.531 61.0273C138.624 60.9721 138.762 60.9911 138.964 60.9685Z" fill="#BF01A4"/>
<path d="M208.261 20.87C209.628 20.7321 210.971 20.5607 212.37 20.7873C215.459 21.2876 217.61 23.0039 219.142 25.5697C221.131 28.9009 220.578 32.6981 217.752 35.6375C215.003 38.4981 211.543 40.1051 207.764 41.1401C204.006 42.1693 200.161 42.5039 196.285 42.2734C192.889 42.0714 189.564 41.4378 186.378 40.1965C185.28 39.7689 184.156 39.3997 183.027 39.0575C181.224 38.511 179.39 38.4158 177.428 38.8142C177.618 38.5777 177.898 38.3099 178.223 38.1145C179.176 37.5411 180.144 36.9912 181.112 36.4419C182.281 35.7788 183.464 35.1411 184.625 34.465C186.293 33.4933 187.937 32.4808 189.609 31.5155C191.393 30.4854 193.208 29.508 194.989 28.4729C196.16 27.7918 197.283 27.0288 198.451 26.3399C199.721 25.5903 201.017 24.8825 202.303 24.1592C204.127 23.1336 205.952 22.1105 207.923 21.061C208.133 20.9815 208.196 20.9274 208.259 20.8733C208.259 20.8733 208.26 20.8649 208.261 20.87Z" fill="#C501A0"/>
<path d="M173.695 40.8987C174.12 40.8406 174.472 40.8143 174.821 40.7675C176.721 40.5128 178.66 41.4939 179.556 43.1739C181.189 46.2363 180.489 49.5903 178.069 52.3292C175.973 54.702 173.293 56.2283 170.329 57.2972C167.39 58.3571 164.357 58.9111 161.231 59.1916C158.091 59.4733 155.031 59.0029 151.937 58.7649C149.12 58.5482 146.29 58.1449 143.469 58.7877C143.324 58.8209 143.16 58.7762 142.927 58.7289C145.453 56.9397 148.279 55.563 150.968 53.9563C152.382 53.1114 153.785 52.2497 155.202 51.4098C155.633 51.1541 156.102 50.9599 156.539 50.7127C157.954 49.9123 159.364 49.1029 160.773 48.2922C163.056 46.979 165.355 45.6927 167.609 44.3324C168.586 43.7423 169.652 43.2807 170.554 42.5973C171.503 41.8788 172.555 41.4016 173.695 40.8987Z" fill="#C502A0"/>
<path d="M375.94 157.608C380.551 158 384.791 159.196 388.706 161.476C396.276 165.884 403.863 170.266 411.45 174.648C414.449 176.38 417.362 178.238 420.021 180.451C422.736 182.71 425.206 185.21 427.489 187.901C430.848 191.862 433.648 196.173 435.92 200.809C437.603 204.244 439.021 207.785 439.695 211.575C440.193 214.379 439.736 217.08 438.785 219.709C437.326 223.739 435.189 227.412 432.355 230.649C429.816 233.548 426.974 236.116 423.379 237.749C421.704 238.509 419.94 239.019 418.125 238.979C414.918 238.909 412.484 237.448 411.015 234.56C409.967 232.499 409.218 230.333 408.633 228.108C407.186 222.603 404.816 217.502 401.77 212.686C398.683 207.804 394.952 203.451 390.666 199.566C387.873 197.033 384.777 194.893 381.492 193.008C375.801 189.743 370.14 186.427 364.464 183.136C362.017 181.717 359.557 180.32 357.115 178.892C355.122 177.727 353.386 176.266 352.191 174.287C350.095 170.817 350.714 167.341 353.313 164.4C355.33 162.119 357.876 160.59 360.729 159.552C363.815 158.43 366.987 157.762 370.292 157.549C372.154 157.429 373.985 157.466 375.94 157.608Z" fill="#A201B9"/>
<path d="M355.291 224.648C359.158 228.632 362.401 232.965 365.092 237.707C367.396 241.767 369.205 246.021 370.324 250.543C371.064 253.533 371.5 256.566 371.449 259.659C371.413 261.836 371.418 264.015 371.447 266.192C371.506 270.672 370.394 274.877 368.529 278.933C366.482 283.386 363.663 287.284 360.006 290.575C357.47 292.858 354.634 294.694 351.206 295.365C349.388 295.721 347.543 295.778 345.743 295.025C343.712 294.175 342.469 292.626 341.632 290.725C340.985 289.256 340.636 287.701 340.648 286.076C340.668 283.51 340.664 280.943 340.644 278.376C340.621 275.381 340.406 272.403 339.75 269.466C339.068 266.417 338.047 263.48 336.797 260.617C334.744 255.912 332.039 251.587 328.871 247.538C326.384 244.358 323.546 241.507 320.503 238.839C317.267 236.001 313.602 233.803 309.868 231.694C308.637 230.998 307.401 230.304 306.218 229.532C303.968 228.065 302.11 226.236 301.243 223.64C300.487 221.374 300.787 219.187 301.991 217.127C303.317 214.86 305.333 213.304 307.603 212.079C311.615 209.915 315.945 208.91 320.511 208.676C323.845 208.505 327.121 208.72 330.366 209.425C333.154 210.031 335.824 210.95 338.283 212.423C340.271 213.614 342.293 214.75 344.294 215.921C348.357 218.298 351.958 221.245 355.291 224.648Z" fill="#AE01B1"/>
<path d="M446.138 275.08C447.596 271.164 449.632 267.676 452.193 264.474C454.593 261.475 457.452 259.004 460.865 257.194C462.434 256.362 464.123 255.797 465.915 255.619C470.024 255.209 473.05 257.412 474.443 261.048C475.008 262.522 475.194 264.048 475.193 265.624C475.18 285.615 475.185 305.607 475.186 325.599C475.186 327.933 475.179 330.266 475.185 332.6C475.192 335.477 474.547 338.234 473.55 340.913C472.031 345 469.914 348.771 467.034 352.079C464.18 355.356 460.941 358.17 456.726 359.678C454.991 360.299 453.213 360.605 451.381 360.287C448.335 359.758 446.409 357.918 445.337 355.128C444.629 353.284 444.4 351.358 444.399 349.405C444.393 330.308 444.395 311.211 444.395 292.113C444.395 289.858 444.422 287.601 444.389 285.346C444.338 281.847 444.938 278.461 446.138 275.08Z" fill="#9601C2"/>
<path d="M459.818 166.431C462.029 167.864 463.812 169.625 465.198 171.727C466.873 174.266 468.596 176.798 469.988 179.489C472.451 184.248 474.347 189.233 474.95 194.604C475.08 195.759 475.171 196.925 475.174 198.086C475.192 206.873 475.146 215.66 475.204 224.446C475.227 227.982 474.343 231.296 473.063 234.534C471.795 237.741 470.007 240.67 467.887 243.399C465.439 246.551 462.542 249.219 458.962 251.084C456.994 252.109 454.877 252.835 452.631 252.777C449.263 252.69 446.939 250.931 445.554 247.961C444.666 246.056 444.416 243.997 444.408 241.932C444.377 233.962 444.304 225.99 444.426 218.022C444.513 212.314 443.285 206.919 441.154 201.671C439.193 196.843 436.486 192.437 433.423 188.218C431.158 185.099 429.28 181.765 428.657 177.912C428.098 174.457 428.92 171.39 431.454 168.796C434.674 165.499 438.719 163.915 443.169 163.23C446.863 162.661 450.551 162.811 454.178 163.862C456.167 164.439 458.004 165.3 459.818 166.431Z" fill="#9601C2"/>
<path d="M245.104 73.9643C238.841 70.3344 232.65 66.7521 226.462 63.1638C223.844 61.6456 221.206 60.1587 218.629 58.5761C216.557 57.304 214.85 55.6507 213.804 53.4196C212.762 51.1964 212.785 48.9848 213.847 46.7734C214.951 44.4735 216.766 42.8398 218.915 41.5276C222.189 39.5275 225.794 38.4533 229.576 37.8884C234.721 37.1199 239.793 37.4589 244.788 38.887C247.308 39.6076 249.614 40.7917 251.865 42.0991C259.477 46.5207 267.1 50.9245 274.716 55.3417C280.733 58.8321 286.742 62.3361 292.76 65.8267C296.125 67.779 299.501 69.7137 302.87 71.6611C304.86 72.8117 306.685 74.1556 308.007 76.0624C310.445 79.579 310.084 83.6228 307.111 86.7281C304.421 89.5378 301.044 91.1319 297.358 92.2029C293.412 93.3495 289.364 93.661 285.289 93.3895C280.179 93.049 275.412 91.6119 270.98 88.976C263.482 84.5171 255.897 80.2026 248.347 75.8289C247.293 75.2182 246.234 74.6158 245.104 73.9643Z" fill="#B401AD"/>
<path d="M344.545 129.723C342.609 126.295 343.449 122.389 346.068 119.674C348.844 116.796 352.301 115.238 356.074 114.203C359.716 113.205 363.443 112.845 367.204 113.067C371.406 113.314 375.505 114.135 379.292 116.017C381.401 117.065 383.401 118.328 385.443 119.507C392.587 123.635 399.731 127.765 406.87 131.902C411.833 134.779 416.786 137.672 421.749 140.551C424.4 142.088 427.049 143.629 429.721 145.132C431.662 146.224 433.425 147.544 434.806 149.262C437.293 152.356 437.66 156.266 434.691 159.838C432.216 162.815 428.906 164.469 425.294 165.609C421.892 166.684 418.369 167.178 414.807 167.144C410.071 167.099 405.462 166.281 401.153 164.256C399.627 163.538 398.2 162.616 396.738 161.77C389.561 157.62 382.385 153.468 375.214 149.309C369.164 145.8 363.122 142.278 357.074 138.767C354.661 137.367 352.24 135.98 349.825 134.585C347.721 133.37 345.892 131.863 344.545 129.723Z" fill="#A201B9"/>
<path d="M268.342 131.804C274.569 135.414 280.727 138.972 286.874 142.549C290.236 144.505 293.591 146.473 296.927 148.472C298.567 149.455 299.924 150.759 300.898 152.401C302.603 155.272 302.596 158.163 300.853 161.016C299.574 163.109 297.669 164.545 295.549 165.722C292.094 167.641 288.352 168.642 284.429 169.077C279.908 169.577 275.45 169.278 271.064 168.101C268.929 167.528 266.881 166.725 264.962 165.609C256.505 160.69 248.04 155.782 239.573 150.881C232.941 147.042 226.296 143.227 219.668 139.382C217.821 138.311 216.154 137.027 214.868 135.295C212.448 132.039 212.74 127.654 215.488 124.682C217.992 121.975 221.115 120.337 224.584 119.249C228.611 117.986 232.76 117.53 236.964 117.75C242.5 118.039 247.618 119.633 252.37 122.518C257.607 125.698 262.964 128.687 268.342 131.804Z" fill="#C001A4"/>
<path d="M258.657 202.028C253.28 198.912 247.981 195.834 242.677 192.763C238.054 190.085 233.417 187.43 228.803 184.737C226.578 183.439 224.556 181.922 223.304 179.585C221.786 176.751 221.891 174.007 223.586 171.289C224.866 169.238 226.727 167.821 228.802 166.655C231.927 164.898 235.315 163.887 238.87 163.445C240.665 163.221 242.481 162.983 244.281 163.024C249.416 163.142 254.408 164.009 258.971 166.495C261.351 167.792 263.666 169.205 266.013 170.562C272.781 174.476 279.552 178.382 286.317 182.302C291.314 185.197 296.293 188.122 301.298 191.004C303.177 192.085 305.02 193.193 306.521 194.781C308.026 196.372 308.95 198.228 309.13 200.395C309.291 202.347 308.542 204.063 307.441 205.625C305.77 207.999 303.406 209.535 300.793 210.712C295.801 212.961 290.511 213.66 285.089 213.348C280.024 213.057 275.24 211.767 270.857 209.116C266.859 206.698 262.778 204.413 258.657 202.028Z" fill="#A801B5"/>
<path d="M339.663 162.26C335.663 162.424 331.837 162.051 328.07 161.058C325.296 160.327 322.788 159.051 320.335 157.622C312.799 153.231 305.248 148.866 297.702 144.494C293.554 142.091 289.4 139.7 285.258 137.289C283.27 136.133 281.492 134.752 280.214 132.8C278.062 129.513 278.422 125.484 281.118 122.582C283.221 120.32 285.785 118.777 288.668 117.715C291.527 116.662 294.483 116.083 297.53 115.786C301.838 115.366 306.018 115.9 310.17 116.953C312.8 117.62 315.158 118.86 317.476 120.205C325.02 124.581 332.571 128.946 340.118 133.319C344.571 135.899 349.038 138.456 353.465 141.08C355.883 142.513 357.881 144.388 358.773 147.12C359.744 150.099 359.087 152.788 357.029 155.159C354.271 158.336 350.629 160.054 346.636 161.067C344.394 161.636 342.065 161.872 339.663 162.26Z" fill="#B401AD"/>
<path d="M405.994 366.595C405.102 372.767 402.659 378.188 398.902 383.029C396.467 386.167 393.637 388.908 390.089 390.855C387.68 392.177 385.127 392.854 382.37 392.577C379.997 392.339 378.289 391.01 377.031 389.106C375.673 387.05 375.255 384.716 375.252 382.314C375.234 370.497 375.243 358.679 375.242 346.862C375.242 344.529 375.256 342.197 375.24 339.865C375.21 335.585 376.321 331.566 378.093 327.701C379.781 324.022 382.023 320.682 384.825 317.755C387.698 314.754 391.009 312.328 395.159 311.261C396.463 310.926 397.78 310.805 399.138 311.062C402.177 311.637 404.111 313.426 405.174 316.219C405.718 317.647 406.04 319.113 406.039 320.656C406.027 335.545 406.032 350.433 406.03 365.322C406.03 365.71 406.013 366.099 405.994 366.595Z" fill="#8A01CA"/>
<path d="M251.554 117.554C248.846 116.019 246.207 114.538 243.588 113.026C237.328 109.411 231.077 105.779 224.82 102.158C221.522 100.25 218.186 98.4009 214.929 96.4254C212.871 95.177 211.014 93.6608 209.893 91.4558C208.249 88.2231 208.808 84.5841 211.306 81.9421C213.947 79.1487 217.271 77.5218 220.907 76.4476C223.483 75.6869 226.124 75.335 228.82 75.1773C233.99 74.8749 238.977 75.5729 243.714 77.6097C245.726 78.4753 247.6 79.6663 249.505 80.7622C256.249 84.6407 262.981 88.5375 269.713 92.4363C273.589 94.6812 277.466 96.9252 281.32 99.206C283.095 100.257 284.607 101.611 285.733 103.351C287.937 106.756 287.444 110.46 284.753 113.433C281.644 116.867 277.572 118.525 273.159 119.552C270.693 120.127 268.176 120.396 265.656 120.383C260.81 120.356 256.06 119.727 251.554 117.554Z" fill="#A201B9"/>
<path d="M373.645 240.169C370.967 237.669 368.718 234.937 366.774 231.942C364.129 227.87 361.03 224.148 357.5 220.791C355.086 218.495 352.432 216.48 349.699 214.563C348.048 213.405 346.673 211.992 345.666 210.217C343.864 207.041 344.634 203.277 347.003 200.721C349.555 197.966 352.773 196.307 356.336 195.239C360.218 194.076 364.208 193.594 368.249 193.821C372.405 194.054 376.491 194.775 380.212 196.732C381.731 197.531 383.151 198.552 384.501 199.613C386.101 200.87 387.659 202.199 389.087 203.64C391.649 206.224 394.033 208.966 396.143 211.934C397.368 213.658 398.552 215.401 399.353 217.358C401.29 222.089 401.185 226.838 399.358 231.566C397.558 236.227 394.512 239.91 390.161 242.465C385.711 245.077 381.197 245.178 376.744 242.439C375.679 241.783 374.715 240.968 373.645 240.169Z" fill="#A801B5"/>
<path d="M221.144 107.914C221.777 111.063 220.941 113.677 218.762 115.922C215.724 119.052 211.86 120.601 207.712 121.63C205.214 122.249 202.648 122.541 200.101 122.543C194.145 122.547 188.462 121.394 183.252 118.307C176.124 114.082 168.909 110.001 161.751 105.825C160.227 104.937 158.74 103.97 157.32 102.928C155.911 101.893 154.864 100.523 154.207 98.8957C152.867 95.5773 153.641 92.6571 155.961 90.0443C158.297 87.4136 161.329 85.8766 164.629 84.8063C168.834 83.4425 173.175 82.9227 177.577 83.2149C182.884 83.5673 187.84 85.0515 192.433 87.8117C198.625 91.5332 204.929 95.0725 211.173 98.7103C213.073 99.817 214.987 100.914 216.796 102.154C218.842 103.558 220.403 105.393 221.144 107.914Z" fill="#A801B5"/>
<path d="M171.465 131.327C174.25 130.167 177.04 129.324 179.962 129.021C182.426 128.766 184.884 128.55 187.387 128.818C189.51 129.045 191.611 129.303 193.678 129.822C196.495 130.529 199.079 131.748 201.573 133.201C209.11 137.592 216.674 141.94 224.209 146.337C226.122 147.454 227.822 148.844 229.052 150.713C231.215 154.002 230.883 157.132 228.84 160.09C227.209 162.451 224.838 163.923 222.279 165.102C219.033 166.598 215.596 167.35 212.023 167.698C207.436 168.146 202.976 167.662 198.577 166.415C196.597 165.854 194.743 165.007 192.964 163.97C186.547 160.231 180.102 156.54 173.688 152.797C171.45 151.491 169.232 150.145 167.081 148.706C165.735 147.806 164.691 146.562 163.948 145.112C162.281 141.863 162.866 138.337 165.364 135.604C167.06 133.749 169.104 132.401 171.465 131.327Z" fill="#9C01BD"/>
<path d="M383.158 307.996C379.446 307.785 377.334 305.694 376.09 302.563C375.452 300.955 375.25 299.251 375.248 297.532C375.239 290.03 375.285 282.528 375.227 275.027C375.198 271.354 375.88 267.835 377.212 264.437C379.169 259.443 382.01 254.993 385.951 251.28C388.217 249.146 390.724 247.333 393.724 246.294C396.133 245.46 398.557 245.182 400.987 246.23C402.565 246.91 403.752 248.056 404.55 249.512C405.513 251.271 406.036 253.183 406.034 255.213C406.027 263.686 406.05 272.16 406.02 280.633C406.011 283.261 405.364 285.797 404.473 288.256C403.059 292.163 401.081 295.784 398.441 299.024C395.799 302.266 392.732 305.026 388.854 306.798C387.081 307.608 385.23 308.087 383.158 307.996Z" fill="#9601C2"/>
<path d="M364.979 449.086C359.02 452.531 353.136 455.934 347.255 459.342C344.943 460.681 342.641 462.036 340.33 463.378C339.932 463.609 339.516 463.812 338.899 464.139C339.004 463.676 339.02 463.426 339.116 463.209C340.161 460.858 340.636 458.378 340.647 455.835C340.682 446.853 340.7 437.87 340.647 428.888C340.624 425.018 341.377 421.333 342.791 417.742C344.993 412.148 348.454 407.43 353.045 403.538C355.178 401.73 357.626 400.352 360.386 399.643C362.888 399 365.317 399.169 367.549 400.58C369.229 401.641 370.19 403.266 370.744 405.073C371.138 406.36 371.415 407.736 371.423 409.075C371.476 418.912 371.463 428.75 371.436 438.588C371.43 440.782 370.902 442.898 370.134 444.956C369.736 446.025 369.07 446.822 368.024 447.353C367.009 447.868 366.042 448.477 364.979 449.086Z" fill="#8D01C8"/>
<path d="M296.445 171.212C299.391 168.192 303.033 166.596 306.976 165.566C309.462 164.917 311.99 164.609 314.572 164.58C318.019 164.54 321.416 164.759 324.766 165.637C327.66 166.395 330.284 167.698 332.839 169.186C337.286 171.775 341.754 174.326 346.196 176.921C347.965 177.955 349.608 179.137 350.865 180.8C353.58 184.392 353.355 188.694 350.221 191.947C347.935 194.319 345.098 195.813 342.012 196.868C339.283 197.8 336.459 198.254 333.571 198.496C329.1 198.871 324.774 198.3 320.506 197.05C318.372 196.425 316.418 195.424 314.513 194.312C309.695 191.502 304.863 188.717 300.051 185.897C297.813 184.585 295.894 182.927 294.765 180.552C293.604 178.107 293.641 175.656 294.975 173.28C295.373 172.571 295.912 171.939 296.445 171.212Z" fill="#9F01BB"/>
<path d="M340.669 381.624C340.669 378.515 340.685 375.522 340.665 372.53C340.629 367.178 342.248 362.277 344.827 357.644C346.738 354.211 349.155 351.153 352.112 348.53C354.601 346.322 357.342 344.487 360.665 343.77C362.519 343.369 364.435 343.321 366.251 344.069C368.508 345 369.886 346.75 370.671 348.966C371.219 350.513 371.474 352.118 371.467 353.772C371.444 358.902 371.41 364.033 371.474 369.162C371.528 373.495 370.407 377.525 368.608 381.428C366.677 385.618 364.053 389.325 360.712 392.523C358.518 394.623 356.018 396.33 353.128 397.373C351.112 398.101 349.039 398.482 346.873 397.871C344.734 397.267 343.191 396 342.144 394.098C341.144 392.281 340.742 390.305 340.685 388.27C340.625 386.095 340.67 383.917 340.669 381.624Z" fill="#9C01BD"/>
<path d="M414.416 388.089C411.844 386.48 410.544 384.154 410.096 381.348C409.901 380.128 409.846 378.876 409.834 377.638C409.8 374.218 409.85 370.797 409.816 367.378C409.759 361.737 411.492 356.599 414.247 351.74C415.891 348.841 417.879 346.178 420.321 343.895C422.938 341.449 425.802 339.33 429.375 338.365C431.163 337.883 432.93 337.806 434.732 338.332C436.889 338.963 438.317 340.405 439.321 342.279C440.177 343.877 440.599 345.62 440.603 347.439C440.613 351.559 440.543 355.68 440.629 359.798C440.709 363.599 439.922 367.203 438.493 370.701C436.57 375.411 433.825 379.6 430.137 383.145C427.69 385.497 424.929 387.432 421.61 388.44C419.211 389.169 416.817 389.33 414.416 388.089Z" fill="#9601C2"/>
<path d="M411.62 306.431C413.284 302.178 415.539 298.388 418.491 294.978C420.512 292.645 422.83 290.693 425.494 289.146C427.448 288.011 429.562 287.252 431.855 287.143C435.977 286.946 438.772 289.344 439.926 292.864C440.343 294.137 440.54 295.523 440.578 296.865C440.669 300.127 440.567 303.394 440.622 306.657C440.674 309.738 440.019 312.679 438.958 315.541C437.474 319.548 435.435 323.261 432.637 326.536C430.156 329.44 427.357 331.98 423.851 333.655C422.098 334.491 420.283 334.979 418.287 335.024C414.452 335.111 411.565 332.608 410.542 329.193C410.05 327.548 409.782 325.868 409.812 324.138C409.851 321.807 409.869 319.473 409.811 317.143C409.719 313.483 410.346 309.953 411.62 306.431Z" fill="#9001C6"/>
<path d="M350.791 101.69C352.309 104.96 351.663 108.43 349.097 111.135C347.201 113.135 344.892 114.541 342.339 115.534C338.601 116.986 334.722 117.749 330.679 117.75C327.431 117.75 324.226 117.569 321.068 116.747C318.609 116.106 316.283 115.175 314.089 113.919C311.873 112.651 309.663 111.372 307.461 110.079C305.682 109.035 304.144 107.728 302.928 106.052C300.579 102.818 300.754 98.5962 303.88 95.2768C305.829 93.2066 308.243 91.8381 310.873 90.821C314.165 89.5481 317.583 88.9065 321.125 88.708C325.881 88.4414 330.489 89.023 334.936 90.6734C336.439 91.2313 337.884 91.9787 339.281 92.7686C341.81 94.1991 344.328 95.6599 346.765 97.2363C348.456 98.3303 349.851 99.7732 350.791 101.69Z" fill="#C001A4"/>
<path d="M438.786 243.201C440.177 245.478 440.605 247.9 440.598 250.43C440.591 252.763 440.573 255.096 440.602 257.428C440.655 261.632 439.581 265.584 437.868 269.386C436.599 272.204 434.99 274.838 433.054 277.258C430.209 280.816 426.858 283.796 422.53 285.494C421.268 285.989 419.871 286.302 418.516 286.382C415.147 286.582 412.673 285.052 411.125 282.124C410.277 280.519 409.831 278.78 409.819 276.964C409.796 273.582 409.743 270.198 409.835 266.818C409.912 264.038 410.68 261.377 411.652 258.773C413.182 254.677 415.432 250.991 418.301 247.692C420.864 244.745 423.839 242.274 427.514 240.725C429.287 239.977 431.137 239.613 433.053 239.784C435.47 240 437.38 241.131 438.786 243.201Z" fill="#A201B9"/>
<path d="M373.567 443.784C373.999 442.331 374.517 440.896 374.834 439.419C375.093 438.212 375.205 436.956 375.218 435.72C375.265 431.56 375.29 427.397 375.225 423.237C375.159 418.992 376.148 414.986 377.849 411.132C379.821 406.665 382.51 402.665 386.145 399.332C388.593 397.087 391.309 395.247 394.54 394.242C396.119 393.751 397.736 393.672 399.337 393.969C402.499 394.556 404.337 396.667 405.322 399.508C405.76 400.773 405.977 402.167 405.997 403.507C406.073 408.523 406.053 413.54 406.014 418.557C405.995 421.033 405.467 423.429 404.348 425.654C404.071 426.207 403.542 426.726 402.999 427.046C397.75 430.134 392.474 433.177 387.205 436.232C383.161 438.578 379.118 440.928 375.065 443.261C374.664 443.493 374.201 443.622 373.673 443.797C373.579 443.795 373.567 443.784 373.567 443.784Z" fill="#9601C2"/>
<path d="M352.1 301.43C354.483 299.408 356.999 297.758 359.958 296.873C361.883 296.297 363.831 296.242 365.779 296.819C367.672 297.38 368.942 298.711 369.92 300.282C370.967 301.966 371.405 303.881 371.441 305.85C371.488 308.414 371.523 310.982 371.432 313.544C371.337 316.239 370.674 318.844 369.719 321.367C368.247 325.255 366.231 328.849 363.548 332.054C361.045 335.044 358.169 337.6 354.594 339.329C352.335 340.422 349.979 340.883 347.488 340.559C345.82 340.342 344.452 339.516 343.325 338.309C341.491 336.345 340.842 333.9 340.706 331.346C340.571 328.788 340.577 326.213 340.703 323.654C340.84 320.849 341.515 318.127 342.513 315.49C344.561 310.077 347.768 305.431 352.1 301.43Z" fill="#9001C6"/>
<path d="M182.407 56.711C185.173 55.5878 187.97 54.9338 190.852 54.6905C192.694 54.535 194.553 54.4238 196.398 54.4816C201.815 54.6513 206.94 55.9214 211.52 58.8756C213.905 60.4133 215.851 62.3568 216.701 65.1676C217.261 67.018 217.045 68.781 216.254 70.5028C215.315 72.5482 213.775 74.078 211.923 75.3337C208.64 77.5605 204.963 78.7823 201.066 79.407C198.651 79.7943 196.214 80.0053 193.763 79.8771C187.992 79.5752 182.527 78.2851 177.749 74.895C176.198 73.7945 174.919 72.4451 174.029 70.7392C172.475 67.7598 172.855 64.9453 174.715 62.2691C176.395 59.8525 178.81 58.3264 181.451 57.1082C181.737 56.9766 182.033 56.8678 182.407 56.711Z" fill="#BD01A6"/>
<path d="M460.804 364.116C462.532 363.201 464.278 362.593 466.148 362.441C469.975 362.131 473.239 364.316 474.477 367.994C474.925 369.324 475.218 370.682 475.191 372.108C475.148 374.439 475.149 376.772 475.188 379.103C475.227 381.394 474.718 383.57 473.961 385.713C473.554 386.867 472.839 387.671 471.732 388.286C468.334 390.174 464.991 392.159 461.626 394.105C455.847 397.446 450.068 400.787 444.289 404.129C443.788 404.419 443.29 404.716 442.603 405.119C442.698 404.707 442.713 404.488 442.797 404.3C443.861 401.919 444.365 399.422 444.386 396.828C444.399 395.196 444.404 393.563 444.389 391.931C444.338 386.344 446.011 381.238 448.723 376.39C450.67 372.909 453.198 369.909 456.172 367.262C457.547 366.038 459.024 364.93 460.804 364.116Z" fill="#8A01CA"/>
<path d="M408.155 425.961C408.193 425.732 408.184 425.482 408.277 425.277C409.384 422.823 409.64 420.181 410.04 417.572C411.001 411.296 413.745 405.803 417.688 400.867C419.949 398.037 422.672 395.684 425.889 393.928C427.595 392.997 429.402 392.317 431.353 392.145C435.48 391.781 438.392 393.874 439.823 397.49C440.503 399.209 440.764 400.999 440.399 402.861C440.075 404.508 439.707 406.13 438.986 407.66C438.727 408.209 438.355 408.603 437.814 408.914C432.911 411.734 428.022 414.579 423.127 417.411C418.367 420.165 413.604 422.914 408.841 425.662C408.672 425.76 408.49 425.836 408.233 425.941C408.153 425.96 408.155 425.961 408.155 425.961Z" fill="#8A01CA"/>
<path fill-rule="evenodd" clip-rule="evenodd" d="M308.583 467.194L86.235 338.679C82.8589 336.727 79.621 333.516 77.2337 329.751C74.8464 325.986 73.5052 321.976 73.5052 318.603C73.5052 315.231 74.8464 312.771 77.2337 311.766L102.091 296.973L32.7699 256.906C29.3938 254.955 26.1559 251.744 23.7686 247.979C21.3813 244.214 20.0402 240.204 20.0402 236.831C20.0402 233.458 21.3813 230.998 23.7686 229.993L95.0576 188.624L53.1376 164.395C49.7614 162.443 46.5236 159.232 44.1363 155.467C41.749 151.702 40.4078 147.692 40.4078 144.319C40.4078 140.946 41.749 138.487 44.1363 137.482L71.1007 121.468C70.5697 120.774 70.0663 120.054 69.5959 119.312C68.8167 118.083 68.149 116.828 67.603 115.578C66.476 112.998 65.8673 110.436 65.8673 108.164C65.8673 104.791 67.2086 102.332 69.5959 101.327L204.325 22.7695C211.916 18.3436 222.222 19.3298 232.981 25.5117L454.512 152.804C468.744 160.981 480.303 180.986 480.303 197.438V363.265C480.303 375.742 476.006 385.222 468.361 389.61L330.294 468.856C329.524 469.437 328.679 469.923 327.762 470.31C322.674 472.452 315.779 471.332 308.583 467.194ZM335.341 488.311C337.259 487.504 339.093 486.51 340.821 485.335L478.084 406.55C494.161 397.322 499.836 379.5 499.836 363.265V197.438C499.836 184.974 495.588 172.509 489.657 162.246C483.727 151.984 475.05 142.077 464.243 135.868L242.712 8.57603C228.676 0.511008 210.46 -3.41731 194.487 5.896L60.5164 84.0105C49.736 89.3446 46.335 100.183 46.335 108.164C46.335 109.878 46.4705 111.571 46.7196 113.23L34.9643 120.211C24.257 125.562 20.8754 136.361 20.8754 144.319C20.8754 152.411 23.8941 160.018 27.6407 165.927C31.4718 171.969 36.8909 177.564 43.3633 181.305L56.0838 188.658L14.713 212.665C3.91364 217.995 0.507812 228.844 0.507812 236.831C0.507812 244.922 3.52635 252.53 7.27309 258.439C11.1042 264.48 16.5234 270.076 22.9957 273.817L63.6409 297.31C56.3971 303.089 53.9729 311.865 53.9729 318.603C53.9729 326.695 56.9914 334.302 60.7382 340.211C64.5695 346.253 69.9888 351.849 76.4608 355.589L298.828 484.115L298.846 484.126C308.579 489.723 322.24 493.827 335.341 488.311ZM23.7686 247.979L7.27309 258.439Z" fill="white"/>
<path fill-rule="evenodd" clip-rule="evenodd" d="M308.583 235.63L78.597 102.764C75.2209 100.814 71.983 100.283 69.5957 101.287C67.2084 102.292 65.8672 104.75 65.8672 108.122C65.8672 111.493 67.2084 115.501 69.5957 119.264C70.0661 120.006 70.5696 120.726 71.1006 121.419C71.2692 121.639 71.4406 121.856 71.6145 122.071C73.6735 124.609 76.0974 126.743 78.597 128.187L180.435 187.02C183.811 188.971 187.049 192.181 189.437 195.944C191.824 199.707 193.165 203.715 193.165 207.086C193.165 210.457 191.824 212.916 189.437 213.92C187.049 214.925 183.811 214.394 180.435 212.443L53.1374 138.902C49.7613 136.952 46.5235 136.42 44.1362 137.425C41.7489 138.43 40.4077 140.888 40.4077 144.259C40.4077 147.631 41.7489 151.639 44.1362 155.402C46.5235 159.165 49.7613 162.374 53.1374 164.325L95.0575 188.542L124.424 205.508C127.8 207.458 131.038 210.668 133.426 214.431C135.813 218.194 137.154 222.202 137.154 225.573C137.154 228.945 135.813 231.403 133.426 232.408C131.038 233.412 127.8 232.881 124.424 230.931L87.5078 209.604C83.7941 207.458 80.2324 206.874 77.6064 207.979C74.9804 209.084 73.5051 211.788 73.5051 215.497C73.5051 219.205 74.9804 223.614 77.6064 227.753C80.2324 231.893 83.7941 235.423 87.5078 237.569L137.154 266.25C140.53 268.2 143.768 271.41 146.155 275.173C148.543 278.936 149.884 282.944 149.884 286.315C149.884 289.687 148.543 292.145 146.155 293.15C143.768 294.154 140.53 293.623 137.154 291.673L32.7698 231.369C29.3937 229.418 26.1558 228.887 23.7685 229.892C21.3812 230.897 20.04 233.355 20.04 236.726C20.04 240.097 21.3812 244.105 23.7685 247.869C26.1558 251.632 29.3937 254.841 32.7698 256.792L102.09 296.839L167.705 334.745C171.082 336.696 174.319 339.906 176.707 343.669C179.094 347.432 180.435 351.44 180.435 354.811C180.435 358.182 179.094 360.641 176.707 361.645C174.319 362.65 171.082 362.119 167.705 360.168L86.2349 313.102C82.8588 311.151 79.6209 310.62 77.2336 311.625C74.8463 312.63 73.5051 315.088 73.5051 318.459C73.5051 321.83 74.8463 325.838 77.2336 329.601C79.6209 333.364 82.8588 336.574 86.2349 338.525L308.583 466.977C315.779 471.113 322.674 472.233 327.762 470.092C328.679 469.706 329.524 469.219 330.293 468.639C333.791 466.002 335.721 461.429 335.739 455.549V278.434C335.717 271.236 332.85 262.695 327.762 254.675C322.674 246.655 315.779 239.808 308.583 235.63Z" fill="#CE0BFF"/>
<path d="M256.102 358.444L237.288 347.575L220.32 279.568L203.123 327.837L184.423 317.034L157.183 220.617L176.805 231.953L194.35 303.636L211.778 252.157L229.67 262.493L247.329 334.242L264.643 282.698L283.457 293.566L256.102 358.444Z" fill="white"/>
</g>
<defs>
<clipPath id="clip0_399_84174">
<rect width="500" height="490.982" fill="white"/>
</clipPath>
</defs>
</svg>
